<?xml version="1.0" encoding="UTF-8"?>
<svg id="Layer_1" data-name="Layer 1" xmlns="http://www.w3.org/2000/svg" viewBox="0 0 100 100">
  <defs>
    <style>
      .cls-1 {
        fill: #fff;
      }

      .cls-2 {
        fill: #ed1c24;
        opacity: .99;
      }
    </style>
  </defs>
  <g id="iz4FLV">
    <g>
      <path class="cls-2" d="M55.75,2.45s.38.23.42.44l1.25-.96-.58,1.15,1.06-.58-.29.58c.37.27,2.14-1.41,2.84-1.5.23-.03.37.25.54.27.12.01.49-.42.84-.09-.21.59.38.79.4.88.13.54-.08,1.39,0,1.99l1.35-.38-.19.58,1.44-.96.19.58,1.06-.77-.19.96c.08.11,1.2-1.31,1.54-.87l-.58.87,1.92-.77-.58.77c.14.02,2.29-.17,1.73.38l-1.54.39,1.15.19-.96.77.69.18c.22-.71.81-.39.86.21l.85-.38.3.57c1.27-.65,1.05-.27,1.66.57.31.43.68.03.27,1.17.49-.16.87-1.17,1.35-.87l-.58.67,1.16-.38-.38.48c.42.35.8-.84,1.35-.39l-.58.67,1.73-.38-.58.77h1.16s-.77.48-.77.48l.77.48h-.96s.77.58.77.58l-.96.1c.34.55.85.84,1.27,1.24.26.25.24.9.66.49l-.39-1.25c1.15.02.9-.88,1.09-1.71.05-.2-.02-.47.25-.42.03,1.03.92,1.81,1.93,1.93-.35.95-.46,1.93.57,2.41-.76.62-1.11,1.45-.29,2.21l.48-.96c.57,0,.58.59,1.24.59s.96-.47,1.45-.79c.17,1.21,1.62,1.63,2.7,1.54.09.5-.07.3-.27.4-.87.44-1.94.58-1.46,1.91l.77-.19-.2.38h1.16s-.96.77-.96.77c.61.09,1.87-.65,2.03.2l-.48.38h1.35s-.77.58-.77.58l1.35.68-.77.19.96.87-1.34-.58.77.96-.87-.39.09.58-.58-.19c-.24,1.13,1.33.6.96,1.54l.59-.08.19-.87c1.4.26,1.46-.39,2.3-1.16-.31,1.02-.25,2.46.77,2.99-.87.64-.92,1.21-.57,2.21-.78-.07-1.5.3-1.54,1.16l1.06-.54c.72.92,1.36.86,2.41.55-.58,1.03.84,1.68,1.73,1.54-.57.98.48,1.74.96,2.5-1.03-.35-2.2-.73-2.89.39l.96.2-.38.29,1.15.77-.38.19,1.54,1.16-.77.48,1.35.68-.58.19.96.67h-.96s1.35,1.06,1.35,1.06l-1.15-.29.77,1.73-.87-.77-.1.77-.96-.58c-.09.35.25.43.32.71.04.16-.15.43-.13.45.04.05,1.01.08,1.16.49l-.77-.1.77.87-.58.29.96.68-.58.1.58,1.15-.96-.48c.68,1.74,1.63,1.08,2.69.1-.12,1.14-.89,2.26.19,3.18-.9.64-1.8,1.17-1.15,2.41-.79.14-1.6.27-1.69,1.22.21.81.93,1.05,1.69,1.09-.65,1.24.25,1.76,1.15,2.41-1.07.93-.37,2.04-.19,3.18-.81-.74-2.44-1.72-2.41,0l.67-.38-.58,1.06.58.19-.77.58.58.19-.96.77.77.29c-1.02.05-.98.44-1.15,1.35l.67-.58.1.77.96-.58-.77,1.73,1.06-.58c.24.59-.85,1.05-1.25,1.44l.96-.1-.96.39.77.29-1.54.87.77.48c-.21.35-1.37.94-1.46,1.05-.13.17.13.51.02.77-.1.23-.76.5-.39.77l1.25-.57-.77.96.77.1-.96.68.58.29-1.73.97c.3.3,1.12-.24.96.48h-.96s.38.38.38.38h-.77s.19.58.19.58h-1.15s.38.58.38.58h-1.73s.09.38.09.38l.87-.19c-.29.5-.03.75.39,1.05l1.73.29c-1.02.27-2.53,1.33-2.12,2.51-1.04-.1-2.22-.46-2.31.96-.72-.84-1.38-.38-2.03-.46-.3-.04-.43-.62-.86-.5.32.85,1.82.68,1.69,1.79-.03.29-.33.41-.27.91s.49,1.11.89,1.44c-1.35.56-.9,1.98-.96,3.18-.52-.35-.65-1.04-1.34-1.26s-2.11.1-2.12.87l1.15-.38-1.35.96.77.19-.58.19.39.58-1.54.2.58.58h-.96s.38.58.38.58c-.47-.19-.62.36-.66.36-.26,0-.7-.3-1.07-.16l.09.58-1.44-.39.58.57-1.07.18c-.4.56.64,1.32.88,1.74-.95-.1-1.6.04-2.24.76-.31.06-.51-.52-.95-.58-.69-.09-.83.63-1.53,0l-.49.68,1.15.48-1.54.39c.44-.02.87.05,1.29.17.33.09.54-.14.44.41h-1.73s.96.58.96.58h-1.16s.2.39.2.39l-.96-.19.39.57-1.73-.77.38.77-.96-.38c.56.9-.09.86-.19,1.11-.07.17.06.55-.01.62s-.44-.05-.61.01c-.2.08-1.05.67-1.44.73-.23.04-.41-.28-.57-.29-.59-.03-1.32.11-1.99-.06l.96.38-.58.57,1.15.39c.05.32-.47.21-.68.2-.44-.03-.81-.19-1.25-.2l.77.96-1.92-.38.38.68c-.87-.11-1.62-.07-2.31-.87l-.09.77-.97-.57-.19.39-.97-.77-.19.58-1.06-.77c-.09.9-.11,2.29-.97,2.79-1.04.62-3.7-1.62-3.85-1.44-.28,1.21.58,1.49,1.15,2.31-.62-.13-1.16-.29-1.82-.18-.44.08-.92.53-.98.53-.17,0-1.49-1.53-2.4-.35-.11-1.03-.69-1.67-1.74-1.35v-.96c-.71.14-1.11.28-1.73-.19l-.2,1.15c-.85-.42-1.56.55-1.53,1.35-.76-.65-1.79-.54-2.22.39-.96-.69-1.86-.75-2.98-.39l1.26-1.73-.21-.59c-.32-.07-2.47,2.12-3.75,1.44-.05-.03-.7-.76-.73-.81-.46-.91.18-1.33.14-1.4-.02-.04-.56.03-.38-.59l-1.06.77.1-.58h-.38s-.69.76-.69.76l-.38-.38-.78.58c-.66.19.11-.85-.19-.96l-1.16,1.15-.1-.77-1.15.77.19-.58-.77.19.19-.46-.52-.51-1.6.19.96-.58-.58-.57.96-.39c-.67.13-1.39.06-2.03.1-.17,0-.32.28-.53.25-.25-.04-1.66-.63-1.86-.84-.34-.37-.74-1.17-.4-1.62l-.96.38.19-.77-1.35.77.19-.58-.96.19.2-.38h-1.16s.77-.58.77-.58h-1.54c-.15-.64.82-.36,1.15-.58l-.96-.57,1.35.19-.77-.39.39-.28-.2-.48c-.79.59-.96-.1-1.63-.01-.44.06-.64.63-.95.58-.69-.8-1.43-.84-2.43-.76.57-.55,1.19-1.01,1.16-1.92h-1.16s.2-.38.2-.38l-1.16.19.38-.58-1.92-.2.38-.57h-.96s.58-.2.58-.2c.26-.2-1.32-.66-1.54-.58l.38-.57-.96-.2h1.15s-1.15-.87-1.15-.87l.58-.29c-1.1-1.27-2.49-.12-3.27.97.19-1.07.59-2.9-.77-3.28.45-.69.94-1.1.77-2.01-.05-.28-.42-.61-.38-.68,0-.01.23.03.31-.07.12-.18.11-.46.27-.6.32-.28,1.35-.33,1.54-1.06-.46-.02-.64.42-1.1.54-.64.16-1.24-.15-1.7.62h-.28c-.04-1.35-1.34-1.06-2.31-.96.2-1.37-1.03-1.88-1.93-2.6,1.64.23,3.24-1.26.96-1.64l.58-.38-.98-.09.02-.49h-.77s.2-.38.2-.38l-.77-.29.77-.1-.77-.39.2-.38-.96-.29.58-.29-.96-.77.77-.1-.96-.87,1.35.38c.09-.35-.26-.43-.32-.7-.04-.18.16-.46.05-.65-.05-.07-1.24-.78-1.46-.96l.77-.29-1.54-1.16.77-.29-.96-.39.96.1c-.41-.4-1.49-.86-1.25-1.44l1.06.58-.77-1.73.96.58.1-.77.67.58c.07-.64-.57-1.22-1.15-1.35l.77-.19-.96-.87.58-.19-.96-.77.77.1-.58-1.06c-.02-.31.72.43.58-.19-.3-1.26-1.99.22-2.5.67-.11-.13,1.38-2.93,0-3.09v-.28c.9-.64,1.8-1.17,1.15-2.41,2.19-.2,2.27-2.06,0-2.32.89-1.13-.34-1.77-1.15-2.41,1.1-.97.34-2.23,0-3.37.91.96,2.61,2.1,2.6,0l-.67.58.58-1.15-.77-.19,1.15-.68-.77.1v-.38s1.15-.77,1.15-.77l-.86.19-.1-.39c.64-.01,1.07-.54,1.15-1.16l-.96.58.1-.96-1.06.77.96-1.73c-2.27.88-.72-.29.19-.87l-1.16.29,1.15-.87-.48-.29,1.45-.58-.96-.39,1.54-1.25-.58-.29,1.54-.58-.58-.57.58-.29c-.78-.87-1.59-.32-2.5-.1.52-.79,1.46-1.46.96-2.5,1,.12,2.04-.44,1.93-1.54.87.38,1.65.37,2.03-.59l1.05.4c0-.66-.79-.96-1.35-.96.24-.81.48-1.75-.58-1.93v-.28c1.17-.87,1.08-1.88.77-3.18.42.25.43,1,.96,1.25.47.22.9.12,1.34-.09-.04.69.04,1.66.97,1.54l-.39-.67c.24-.35.43-.27.76-.11l.39-1.15-.57.39.38-.96-1.06.58.48-.77-.96.19.96-.96-.96.1,1.35-.68-.77-.57h1.35s-.58-.39-.58-.39c.42-.77,1.45-.22,2.12-.19-.07-.52-1.16-.08-.96-.77.95.25.98-.64,1.93-.39.04-1.23-1-1.44-1.93-1.83,1-.58,2.51-.3,2.7-1.83.49.31.79.79,1.45.79s.68-.59,1.24-.59c.06.41.24,1.02.77.96.18-.98.3-1.55-.57-2.21,1.14-.65,1-1.5.58-2.6,1.09.22,1.79-.78,1.93-1.73l.56,1.85.79.27c.16.17-.75,1.39-.2,1.54.2-1.06,1.23-1.14,1.74-2.02l-1.15-.1.96-.48-.96-.1.77-.39-.77-.57,1.14-.02v-.56s1.17.19,1.17.19l-.58-.77,1.73.19.09-.57c.39.35.64.88,1.25.77-.27-.63.27-2.03,1.06-1.94.14.02-.02.6.48.39v-.77c.92-.35.88.94,1.35.44l.1-.44,1.44.2-.96-.67.96-.1c-.17-.47-.9-.42-1.35-.58-.56-.55,1.6-.37,1.73-.38l-.58-.77,1.92.77-.58-.87c.35-.44,1.45.97,1.54.87l.1-.96.77.77c-.3-1.24.81-.16,1.16.19l.57-.38.68.58c-.2-.45.37-.63.38-.7.02-.25-.27-1.01-.14-1.31.11-.24.4-.24.47-.36.12-.2.04-.86.35-.91.23-.04.43.32.57.32s.3-.32.54-.28c.2.03.66.47,1.08.38l.03.55.58-.11c.28.56.48.8,1.16.69l-.58-.77,1.32.73.13-.36c.6.45,1.14-.2,1.04-.83-.11-.68-.59-1.14-.96-1.66,1.22.39,2.35,1.05,3.47,0,.13,1.01,1.08,1.89,2.12,1.35l.87,2.12c.54,0,1.26-1.6,1.06-2.12,1.16.43,2.07-.16,2.31-1.35,1.07,1.03,2.33.41,3.46-.19.24.25-1.33,1.16-.9,2.45ZM49.91,7.71c-.77.06-1.64-.1-2.39.01-.91.13-1.34.8-2.5.37l-1.66.76c1.7-.39,3.61-.25,5.28-.59.3-.06,1.11-.29,1.27-.56ZM53.76,8.48c-.64-1.03-2.22-.72-3.27-.77l2.26.72,1.01.04ZM42.97,8.29c-14.47,2.26-27.13,12.7-32.17,26.39,1.46-1.09,1.95-3.17,2.86-4.75,6.28-10.99,16.33-18.76,29-20.91l.32-.73ZM53.95,9.06c-1.76.12-3.66-1.73-5.3-.2-2.21,2.07,1.55,4.14,1.84,2.03.08-.56-.62-.11-.88-.47-.83-1.14,1.5-2.04,1.99-.86-.33,2.18-.39,4.53-.75,6.7-.26,1.53-.61,4.15-2.67,3.01-.06,1.1,1.1,1.22,1.92.87.93-.4.88-1.19,2.31-.68-.29-.43-.51-.48-.59-1.05-.27-2.03.56-4.06.4-6.08.36.06.31.41.41.65.53,1.41.92,3.09,1.33,4.55l.55-.32,2.53-4.3c-.52,1.72-.26,4.17-.86,5.79-.18.49-.49.37-.68.76l3.08.58c.05-.38-.31-.5-.38-.87-.43-2.26.8-5.85.81-8.23l.72-1.3-2.7-.19c-.05.05.19.32.18.5,0,.57-1.64,3.41-2.07,4.07-.12.19.02.34-.43.25.02-1.76-1.64-3.59-.77-5.2ZM79.5,19.73c-6.09-5.95-14-10.12-22.47-11.44v.77c.1.1,2.53.13,2.94.24.67.17,2.01.75,2.83,1.02,26.66,8.86,37.27,41.16,20.66,64l.35.63c2.93-4.25,5.28-8.63,6.69-13.64,4.1-14.52-.24-31.07-11-41.58ZM41.04,11.18l-2.89.58c-.14.52.32.34.56.69.3.44,1.66,6.56,1.56,7.11-.06.31-.29.42-.39.68l5.39-.96-.39-2.5c-.62-.13-.46.73-.69,1.14-.39.71-1.45.9-2.2.98-.15-1.98-1.14-4.17-1.33-6.09-.07-.67-.1-1.08.37-1.62ZM36.23,12.53l-2.12.96c.51.05.84.3,1.13.71.24.34,2.25,4.88,2.31,5.22.23,1.35-1.58,2.31-2.55.8-.46-.72-2.25-4.77-2.25-5.47,0-.26.13-.45.21-.67-.28-.22-2.55.9-2.89,1.25.29.23.69.07.97.42.93,1.13,1.43,3.89,2.41,5.25s2.42,1.61,3.81.75c3.18-1.97-.72-5.77-1.18-8.21-.08-.41-.03-.65.16-1.01ZM63.35,12.57c-3.13.46-5.35,6.5-2.36,8.44,3.61,2.34,7.74-4.63,5.02-7.52-.6-.63-1.8-1.04-2.66-.91ZM73.61,17.73c-.94.06-1.32-1.21-2.11-1.46-1.69-.52-3.2.32-3.29,2.14-.07,1.32.94,2.54.96,3.68.04,1.95-2.54,1.93-2.51-.22,0-.55.29-1.08.21-1.64l-1.92,2.22c1.33,1.08,2.75,3.09,4.73,2.03,1.29-.69,1.42-2.22,1.2-3.53s-2.41-4.03.93-3.44c.52.69.42,1.44.27,2.23l.38.1,1.16-2.12ZM26.93,17.58c-5.04.82-1.21,9.94,3.62,8.25,4.01-1.4.64-8.94-3.62-8.25ZM77.65,21.38l-2.31-2.12c.03.42.03.69-.18,1.07-.4.7-2.32,2.17-3,2.97-1.14,1.35-2.12,2.47-.95,4.23,1.09,1.63,2.49,1.64,3.94.5,1.08-.85,2.79-3.22,3.74-3.77.44-.25.79-.2,1.26-.18.23-.2-1.53-1.97-1.73-1.73,0,.27.03.56-.04.82-.17.56-3.1,3.5-3.72,3.99-1.12.86-2.87.74-2.57-.82.15-.74,4.01-4.7,4.73-4.92.26-.08.56-.03.83-.04ZM64.93,25.62c.02-.33.03-.6-.18-.88s-3.49-1.87-4.06-2.1c-3.22-1.29-7.17-2.22-10.54-1.69-1.16.18-1.48-.24-2.23-.28-8.25-.45-18.47,7.01-22.64,13.76-.94,1.51-2.17,3.45-1.96,5.26l2.08-4.17c8-13.73,25.96-18.46,39.53-9.89ZM23.9,26.2c.71-2.92-1.96-4.24-4.15-2.12-.37.35-2.27,2.58-2.02,2.9.76-.48,1.23.13,1.82.58.81.62,3.79,3.15,4.26,3.84.26.38.21,1.12.56.97l1.83-2.31c-1.35.45-2.46-1.27-3.46-2.02,1.27-.94,2.96,1.1,4.32.87.62-.1,1.48-1.28,1.45-1.93-1.58.79-2.98-.87-4.62-.77ZM64.74,26.4c.23.64,1.08.34,1.53.08,2.2-1.33-1.23-3.51-.77-.29l-.76.21ZM81.5,25.43l-.38.12c0,.21,0,.45-.1.64-.2.39-5.69,4.05-6.23,4.14-.21.04-.4-.09-.6-.09l2.79,4.62,2.22-1.53c-1.41.2-2.75-.21-3.07-1.72,1.45-.44,5.05-3.8,6.24-3.85.21,0,.45.21.68.17l-1.54-2.5ZM52.8,29.67c.2-.21-.75-1.24-.98-1.43-.57-.48-3.38-2.09-4.06-2.29-1.12-.33-2.17.03-3.05.74.66.09,1.43-.58,2.07-.64s3.15,1.44,3.81,1.88c.79.53,1.37,1.28,2.21,1.74ZM77.07,39.5c-1.79-5.18-5.41-9.85-9.82-13.1l-.18.74c4.15,3.03,7.59,7.44,9.26,12.33l.75.02ZM22.74,35.45l1.35-2.41c-.38-.57-.5.2-1.01.07-.47-.12-3.88-2.33-4.56-2.78-.79-.53-1.79-.93-1.85-2.01l-1.64,2.7c.28-.01.53-.2.82-.16.35.04,5.56,3.26,5.99,3.65.27.25.45.43.5.82l.4.12ZM49.88,29.44c-.75-.4-1.2-.11-1.83-.05-.83.07-1.07.09-1.88.3-1.45.38-2.42.79-3.38,2l.57.29-.39.57h.77s-.58,1.06-.58,1.06l.38.18-.18.69c.66-.61,1.48-.31,2.02-.96l.19.39c1-.79,2.59-.83,3.85-.79.66.02,3.05.37,3.52.67.07.04,1.13,1.06,1.17,1.12.13.21-.36,1.2-.06,1.49.29-.34.77-.58.86-1.06.03-.16.04-3.09,0-3.24-.04-.14-.29-.09-.36-.25-.03-.07.14-.32.06-.45-.5-.85-1.55-1.44-2.48-1.74-.78-.26-1.59-.08-2.13-.57l-.12.34ZM86.32,34.1l-1.25-2.69c-1.14,2.09-6.5,2.39-6.99,4.76-.16.77-.04,1.76.37,2.43,1.75,2.87,5.88-.83,8.02-1.19.55-.09.88.14,1.39.15l-.77-1.99c-.24-.45-.66.5-1.09.81-.64.45-5.15,2.4-5.74,2.34-1.23-.12-1.45-1.77-.37-2.48.63-.41,4.96-2.32,5.56-2.34.3-.01.57.21.87.2ZM16.38,35.84c.11-.83-.23-1.43-.87-1.92-3.61-2.79-7.61,5.39-4.73,7.62,1.3,1.01,2.66.02,2.13-1.45-2.66,1.36-2.62-2.04-1.68-3.71,1.48-2.62,5.1-1.12,4.19,1.78-.1.1-2.38-.95-2.65-1.11-.46-.28-.31-.73-.82-.62.21,1.01-.32,1.62-.58,2.5.37-.2.57-.2.97-.12.49.1,3.72,1.49,3.82,1.79.15.47-.04,1.08.18,1.75.47,1.45,2.26,2.29,3.71,1.89,1.3-.36.89-1.13,1.25-1.84.2-.38.83-.42,1.15-1.16,1.27-2.95-.56-7.05-4.15-6.27-.75.16-1.19.76-1.91.88ZM52.99,36.8c.1.03.29-.06.44,0,.08.03.38.95.51.11-.86-1.25-.02-1.85-1.68-2.75-.6-.32-2.74-.63-3.44-.61-1.04.03-2.47.19-2.39,1.52l.58-.29.38.29-1.16.77c1.3-.42,2.22-.06,3.47.2l-.34.48c1.04.97-.1,1.13-.05,1.64-.65-.12-1.29-.32-1.99-.2-1.19,1.59.48,1.84,1.8,1.55l-.19-.77h.58c.07-.23-.18-.46-.19-.58.23.04,1.15.2,1.16.29l-1.16,1.25c.91.16.62.77,1.74.39l.19.38c.49-1-.77-1.55-.77-1.65-.03-.4.72-2.58,1.06-2.58.37.4.94.41,1.45.57-.47-.06-.9.08-1.35.2-.02.33.42.17.69.37.13.1.51.76.47.78-1.13-.36-1.58,1.02-1.13,1.9l1.51.03c0-.59.2-1.3-.58-1.35v-.19c.59.06.42-1.01.78-1.44-.1-.02-.37-.29-.4-.3ZM43.55,36.03c.58.27,1.72-1.36,1.54-1.54-1.06.22-1.55,1.22-2.7.97l.96.96-.77-.19c.65,1.13-.05,2.28-.77,3.18l.38.19-1.15.97.38.19-.72,1.01-.43,2.75,1.15-1.92v1.93s.77-.58.77-.58v1.35s-.19-.77-.19-.77c-.28-.05-.26.32-.3.51-.14.65-.02,1.34.11,1.99l.38-.77c-.29,1.24.95,1.13,1.45,2.12l.29-.38c0,.26-.04.53.1.77.06.1,1.63,1.5,1.73,1.56.22.14.47-.04.48-.02.06.09-.17.37-.09.59.11.3,1.29.86,1.63,1.15l.19-.77.39,1.15.19-1.35.19,1.15.19-.58.19.58.67-.39.19.39c.72-.59,1.75-.62,1.84-1.73l.29.77c.63-.51.98-1.07.87-1.92l.19.58c.74-.4.3-1.45.19-2.12l.57.58c.24-.6.51-.89.35-1.59-.1-.45-.56-.64-.54-1.1,1.75.79.58-2.39.72-3.32l-.92-2.26-.77,1.25.09.3c-.68.28-1.24-.9-1.53-.92-.2-.01-.65.44-1.34.33-.52-.08-1.37-.88-2.13-.88-.71,0-1.72.95-2.6.68l.38-.38-1.15-.19c.08,1.47,1.41,1.64,2.62,1.71.62.04,2.34-.33,2.68-.32.09,0,.56.49.87.63.57.26,1.32.12,1.92.48-.3.5-1.27,0-1.75.08-.72.13-.85.63-2.01.5-.94-.1-1.48-.96-1.58-.97-.36-.06-.74.16-1.05.1-.08-.02-1.32-.76-1.42-.86-.92-.85-.33-1.36-.48-2.18-.04-.2-.8-.46-.78-.8l.59-2.41-.58-.19ZM48.94,36.8c-.06-1.62-2.05-.69-3.08-.77-.05.29.36.24.58.28.84.16,1.81-.13,2.5.49ZM49.14,37.57l-1.13-.55-.15.36-2.19-.2.91.73,2.56-.35ZM46.58,38.59c-.04-.06-1.04-.89-1.1-.92-.34-.17-.37-.03-.58.2.67,1.19.82,2.24,2.5,2.02-.02-.34-.48-.22-.67-.58-.11-.21-.04-.53-.15-.71ZM75.15,37.76l-11.95.29,8.58.1,3.36-.39ZM37.34,38.01c-1.87-.83-3.13,1.91-2.16,3.41.47.72,1.86,1.23,2.67.94.26-.09.25-.42.35-.49.07-.06.38.09.59-.04.99-.58.72-3.32-.35-3.48-.23-.04-.52.17-.82.06-.21-.07-.23-.37-.28-.39ZM88.25,39.11c-.63-.16-.3.54-.72.77s-6.72,1.77-7.08,1.73-.48-.46-.87-.38c-.1.1.54,2.42.67,2.7.25.55.36-.24.57-.4.56-.42,5.07-1.48,6.04-1.67s1.24-.23,2.16.13l-.77-2.89ZM9.26,39.31c-1.46,6.25-1.73,12.76-.49,19.08,1.2,6.09,3.86,11.6,7.52,16.56.28-.23.31-.24.21-.59-.21-.74-2.29-3.49-2.84-4.48-4.45-8.05-5.63-15.97-4.78-25.08.16-1.69.65-3.04.58-4.82,0-.23.15-.72-.19-.67ZM77.84,39.88h-2.5v3.95c0,1.62-1.84,4.09-1.91,5.61-.05.95.39,1.75.76,2.57-1.37-.98-1.02-2.77-.58-4.15.31-.97,1.36-2.7,1.36-3.65v-3.18l-.23,2.09-1.31.23c-.02.61.68.84,1.07,1.16v.58c-.38.28-.5,1-.67,1.25-.92,1.29-.87.9-1.66,2.59-.14.29-.78.77-.96,1.16l.1-1.73c-.71,0-.69,1.02-1.25,1.35l-.19-.58-.48.77c-.35-.71.33-1.05.49-1.72.45-1.85-.39-1.67-.93-2.76-.16-.33,0-.9-.33-.91-.7,1.53,1.87,2.69-.58,3.66l-.38-1.15-.39,3.47c-.59.14-.3-.38-.48-.76s-.74-.47-.31-1.1c.11-.53-.28-.11-.34.05-.25.63-.02.89,0,1.51-1.16.12-.63,1.63-.79,2.47-.03.17-.72.5-.75.65-.02.09.12,1.55.18,1.61.88.07-.04-1.55.67-1.92.49.41,1.14.53,1.68.78.25.11.02.61.82.17l-.1.39c.37.28,2.65-1.98,3.06-.84s-1.28.71-1.71,1.42c.66-.32.77.06,1.35.19l-.19-.57c.83-.09,1.55.04,2.22.57.38-.02.28-1.6.77-1.34.64.33.01,2.66,1.4,1.98.18-.09.29-.07.25-.35.17-.63-.64-.53-.76-1-.09-.37.38-1.61.17-2.18.68.11.21,1.74.48,1.74l.1-.97c.52-.07.48,0,.67.39.32-.48.57-.3,1.04-.21l.21-.36c-.05.46.15.41.58.39v-.77c.62.21.84.25,1.35-.19l.12,2.03c-1.72,1.61-.67,1.28.44,1.93.58.34.74,1.13,1.75.86l-.77.19.77.57c-1.14-.13-.61.14-.81.82-.08.27-.56.77-.16,1.02.26.16,2.66-.15,3.28.28l-1.15-.39.96-.38-2.5-.77c.06-.53.93,0,1.06,0h2.79c-.25-.56-1.1-.42-1.58-.6-.16-.06-.27-.55-.73-.37-.13-.6.57-.18.39-.96l-1.35-.38,3.92.76,4.36-1.72-8.02-1.52-2.58.56c-.07-.31.28-.09.38-.33.16-.41.17-1.13.2-1.59.76.39.6-.55.68-.79.38-1.15.66-1.2.4-2.69-.09-.5-.69-1.19-.69-1.26-.02-.48.48-.88-.59-.95l-1.14-4.33c-.77,3.37,3.58,7.02.77,9.82-.04-.52.48-.77.57-1.26.51-2.77-1.72-4.88-1.72-7.5v-3.37ZM69.17,42.39c.01-.13-.26-.39-.29-.39h-2.99v.39h3.28ZM96.89,44.67c-.69-.04-1,1.49-.26.99.83-.56.69-1.8-.1-2.32l.36,1.32ZM32.37,43.92l-.39-.29c-1.24.52-3.35,6.08-3.86,7.52-.4,1.14-.86,2.35-.96,3.57l1.5-4.18c1.14-1.77,1.58-4.36,2.84-6.02.22-.29.46-.56.86-.59ZM3.62,44.93c-.15-.25-.69-.02-.44-1-.97.72-.31,1.43.48,1.93-.03-.28.1-.7-.04-.92ZM22.93,59.92c-.82-2.25-1.49-4.64-1.73-7.03s.06-4.49.2-6.93c.03-.51.05-1.16-.1-1.64-.26.21-.39.35-.47.68-.18.72-.35,2.48-.39,3.27-.22,3.89.46,8.19,1.92,11.77l.58-.11ZM58,50.86c-.13-2.05-1.04-4.02-2.31-5.59.25,1.57,1.34,2.96,1.83,4.42.16.47-.16,1.3.47,1.16ZM38.93,46.43c-.22-.06-.69-.38-.58.09.17.64,1.12.9,1.3,1.12.08.09.01.38.09.46.18.21.99.33,1.3.44l-.96.57h1.15s-.58.39-.58.39l1.15.2-.77.48,1.92.68c-.09.51-.87-.08-1.15,0-.05.04.64.97.75,1.08.7.6.77.46,1.3,1.23.42.61,1.28.86,1.99.97l-.77.38h1.35s-.77.38-.77.38l1.35.39c.05-.05-.51-1.17-.56-1.23-.27-.3-.17.12-.54-.5-.34-.57-.95-1.35-1.4-1.85-1.06-1.19-2.08-1.98-3.04-2.84-.54-.48-.07-1.15-1.21-.71.07-.91-.94-1.12-1.35-1.73,1.4.35,1.75,1.28,2.56,1.59.28.11.64-.09.7-.05.07.06.07.46.21.63,1.28,1.58,2.89,2.82,4.05,4.27.28.35.62.79.96,1.07-.02-.37-.16-.8-.31-1.13-.96-2.07-4.15-4.78-5.98-5.97-.38-.24-2.07-1.02-2.38-.8.02.12.12.28.19.38ZM60.28,47.43l-.54-.23v2.12s.58,0,.58,0l-.03-1.89ZM85.16,48.18c-.46-.38-.38.87-.88.95l-.56-.38c-.48.26-.04.55-.11.83l-.28.31-.66-.18.18,1.04-.76.41.56,1.03-.75.41c.6-.04.81.17.77.77l.19-.96.38.77-.19-1.92.38.38c-.24-1.18.39-1.14.79-1.63.15-.18-.02-.45,0-.47.11-.08.51-.04.7-.17.33-.21.4-.62.82-.63.07-.34-.3-.11-.42-.2-.24-.17-.15-.36-.16-.37ZM15.97,49.09l-1.13-.63-.38.29c.47.08,1.16.51,1.48.83.04.04.6.82.62.87.35.74.25,1.78.98,2.16l-.21-1.04c.27-.21.51,0,.4-.5l-.77-.3.38-.77-1.15-.58.38-.29c.1-.14-.61-.76-.61-.04ZM55.11,53.75v-2.6s-.38-2.02-.38-2.02c-.25,1.15-.12,2.54.02,3.73.02.2.08.9.36.89ZM61.66,53.37c.38-.39-1.72-1.62-1.92-1.83-.58-.6-1.01-1.68-1.73-2.21-.06.88.59,2.01,1.54,2.12l-1.35.57,2.12.39-.58.38,1.92.58ZM63.76,49.88l-1.52-.36v.77s1.41-.03,1.41-.03l.32-.74-.21.36ZM51.64,58.38l.11-1.92-.5-4.44c-.67.07-.57.63-.82.91-1.15,1.26-2.83-.51-3.03-.33-.03.66.93.72.97.77.02.03-.2.39-.18.65.23,2.41.8,1.82,2.2,3.02.5.43.72,1,1.25,1.34ZM62.82,54.72c-.81-1.27-2.05-1.61-3.47-1.15l1.7.32,1.77.83ZM15.22,54.15h-.38s-.29.76-.29.76l-.67-.58-.09.78h-.67s-.4.95-.4.95c.13.11,1.82-1.02,2.26-1.11.61-.13,1.38-.07,1.99.04.66.13,1.81.9,2.32,1.34.61.53.54,1.39,1.14,1.84-.07-.26.27-.8.18-.94-.05-.08-.69-.21-.56-.41l.38-.39-.58.19v-.96s-.68,0-.68,0l-.09-.97-.77.39v-.58s-1.06.19-1.06.19l.1-.58-1.06.39-.2-.4-.38.39h-.39s-.1-.38-.1-.38ZM63.72,55.93c-.42-.58-2.24-1.44-2.97-1.55-1.35-.21-3.81.15-4.1,1.69l-.38-.19-.58,2.22.38.29.2-1.16.59.12c.19-.16.12-.52.22-.65s2.79-.63,3.24-.54c1.84.38,3.09,1.71,3.29,3.57h.57c.21-1.18.29-2.78-.44-3.79ZM68.98,55.68l-.48-.77c-.38.3-.85.44-1.26.67-.25.15-.49-.03-.38.48l2.12-.39ZM43.93,56.84c.39-.36-1.47-1.48-1.84-1.53-.52-.08-.92.15-1.31.13-1.03-.07-1.23-.61-2.56.13-.06.03-.92.7-.97.75-.37.4-.55,1.66-1.11,2.08l-.22,2.49.49.19.19-.38v.77s.28-.36.28-.36c.54.25,1.21.26,1.73.42.1.03.1.24.14.25.51.18,1.1-.13,1.5.65.27-.43-.11-.8-.1-1.05.02-1.28.5-2.46,1.21-3.52.79-1.18,1.11-1.64,2.55-1.02ZM37.58,55.49c-.92-.37-2.28,0-2.89.77l2.89-.77ZM96.73,56.84c.99-.42.45-1.8-.58-1.54l.58,1.54ZM51.45,59.53c.14-2.09-3.34-3.81-5.01-3.38-.75.2-2.26,1.03-2.88,1.55.61.32,3.14-1.56,3.27-1.44.09.59-1.77,1.33-1.73,1.44.17.54.52-.06.76,0,.13.03.96.51.97.58l-.86.27c-.99,1.43,1.04,1.21,1.27,2.31l.56-.18-.2.38c.59-.09,1.17.1,1.54-.48,0-.16-1.73-1-2.02-1.25-.24-.21-.38-.46,0-.58s.3.37.59.56c.6.4,1.49.29,2.01-.17l-.18,1.14,1.15.3c-.19-.95-.61-1.53-1.41-2.06-.65-.43-1.66-.48-1.87-1.31,1.06.13,1.77.91,2.89.38.14.62-.19.57-.57.87.27.42.39.17.77.09l.18.87.79.09ZM74.66,57.99c.93.11,2.03-.08,2.99,0v-.19h-2.7l1.74-.19-.17-.35c.34-.14.81-.32.74-.8-1.55.27-2.23-.83-3.65.1-.29.19-.51.53-.78.76,0,.21,1.57.64,1.83.67ZM62.62,58.96c.18.55-.2.95-.29,1.35-.3,1.21.95.9.89-.48-.04-.79-1.12-2.07-1.8-2.45-.24-.13-2.2-.89-2.32-.88-1.37.13-.99,2.79-1.47,3.8l.95.39,1.26-3.08c.49.7-1.29,3.2-.38,3.47s1.69-2.22,1.83-2.89c.35-.05.17.42.14.62-.13.82-.54,1.54-.91,2.26l1.07-.18,1.04-1.94ZM72.64,56.84c-2.68.34-5.41-.24-8.09-.1-.13.46.42.26.68.28,2.25.18,3.83.51,6.14.17.31-.05,1.16-.08,1.28-.36ZM72.64,57.61c-2.48.15-4.95.48-7.42.77-.29.03-.59.15-.28.38l5.39-.57-.77.38,3.27.58-.19-1.54ZM55.3,60.3l1.36-.47.95-2.03-2.31,2.5ZM74.95,60.5c-.75-.02-1.3-.88-1.88-1.11-1.15-.44-4.4-.81-5.46-.15-.2.12.07.39-.09.49-.3.19-2.02.48-2.02.66l5.51,1.43c.39.02,3.27-.71,3.69-.91.26-.12.3-.02.24-.43ZM25.63,61.08h-4.82v-.19h4.82l-.5-.98-5.47,1.07,8.03,2.74,6.42-1.68c-.06-.35-.4-.32-.65-.41-2.47-.83-5.48-1.29-8.02-1.9.32,1.8.45,1.12,1.64,1.35.41.08.53.45.81.54.43.13,1.22-.18,1.41.23l-3.53.16-.31-.28.18-.65ZM87.67,60.5c-1.07-.17-2.14.44-3.17.39-1.54-.07-3.49-1.08-5.11-.97l4.73,1.53,3.55-.95ZM47.02,61.27l-.77-1.07c-1.62-.08-.25,1.36.77,1.07ZM54.89,60.14l-2.86.36,1.16,1.73c-.67.18-1.75-1.49-2.02-1.49-.32.41-.92.23-1.21.39-.09.05-.77.92-1.2,1.01.39.19.92-.42,1.15.29-1.82.51-3.14.76-5,.47-.2-.03-.63-.26-.58.1,1.41.41,2.83.81,4.23,1.26.38.12.8.05,1.17.18,1.53.53,2.72,1.9,4.71,1.85,1.21-.03,1.64-.72,3.03-.16,1.14.46,1.36,1.22,1.91,2.15.13.22.45.26.51.34.08.12.16,2.42.16,2.79.05,2.28-.6,4.83.94,6.81.84-.92.04-2.96,1.07-3.55,1.13-.65,4.38-.53,5.77-1.07l-.58-.19.39-.19v-.58s1.16,0,1.16,0l.1.58,3.16-.79c-.18-2.44.11-6.42-1.92-8.15-1.44-1.23-3.4-.8-5.23-1.13-1.11-.21-2.43-.89-3.42-1.01-1.1-.14-1.75.07-3.04-.21-.81-.17-1.33.18-1.41-1.23-.48.28-.81.47-1.4.35-.83-.17-.61-.77-.75-.9ZM83.82,62.23l-1.54-.39.39.29-.34.13-.05.54,1.54.19-.58-.48.58-.29ZM65.47,62.11c-.58-.32-.48.27-.66.31-.31.07-1-.19-1.03.19,3.16.62,7.05-.28,7.9,3.86l11.17-1.74c-.06-.35-.99-.21-1.25-.19-2.53.21-5.19,1.14-7.8.96l1.73-.57h-1.93s.2-.38.2-.38c-1.64-.23-1.09-1.46-.2-2.31l-1.16.19.19.38c-.57.03-1,.29-1.58.34-1.7.16-2.89-.75-4.5-.93-.76-.08-.49.22-1.09-.12ZM34.3,62.62l-1.16-.19.38.38c-.89-.38-.72.14-.9.19-1.52.4-3.19.5-4.65,1.29-.25.14-.52-.1-.41.45l7.13-1.25.19-.29-4.62.77,3.76-.96.29-.38ZM34.3,63.97c-1.85.21-3.67.68-5.52.94-.21.03-2.18-.11-1.61.41.34.02.62.14.97.11,1.51-.14,3.86-.77,5.48-1.07.28-.05.6,0,.68-.38ZM31.41,65.12c-1.15-.15-2.91.87-3.94.76-.53-.05-2.25-.85-3-1.05-.51-.13-1-.32-1.54-.29l1.77.83,2.07.35.11.56,4.52-1.16ZM30.06,66.47h2.89l-2.31.38,4.52,1.75c1.45-.71,3.71-.74,5.06-1.22.25-.09.81-1.39,1.4-1.29.07-.33-.08-.4-.33-.53-.76-.42-2.45-.58-3.32-1-.36.95-.63,1.11-.2,2.11-1.33.6-2.31-.44-3.66-.19l3.05-.61c-.03-.39,1.08-1.37.32-1.32l-7.42,1.93ZM44.77,66.21c-.11-.07-.15-.3-.25-.41l-.78.1.77.57-1.16.39,1.91.02c.23.69.39,1.54.02,2.21l.38.09c-.11-.73.28-2.24-.28-2.71-.15-.12-.43-.13-.62-.24ZM79.77,65.7c-2.21.32-4.89.42-7.03.96-.27.07-.6,0-.68.38l7.71-1.34ZM31.99,67.63c-.84,0-1.28-.81-2.12-.38-.08.09.2.28.31.36.3.19,4.37,1.74,4.62,1.75.99.04,2.86-1,3.93-1.15.04-.36-.39-.15-.59-.1-.51.11-1.07.23-1.58.35-.42.1-1.51.66-1.6.65-.11,0-.72-.5-1.06-.61-.65-.2-1.45-.31-2.12-.48l.19-.38ZM55.49,68.2c-.65-1.27-2.45-.59-3.47-.09.45.12,1.2.17,1.65.11.38-.05.12-.5.95-.42.39.04.24.6.86.4ZM40.66,67.82l-5.2,1.73c1.8.86,3.95-.44,5.2-1.73ZM57.61,68.4c-2.6.08-5.15.78-7.75,1.02l-4.58.91,10.08-1.38,2.25-.54ZM58.19,68.98l-5.78.96c1.74-.15,3.58-.28,5.29-.58.34-.06.58.21.49-.38ZM67.25,77.45c2.63-.73,5.23-1.58,7.89-2.22.96-.64.64-2.81-.38-3.27-.61-.28-3.5,1.09-4.42,1.35-2.32.67-4.76.98-7.13,1.44.91,1.22,1.43,2.73.39,4.04,1.27-.3,2.53-.82,3.66-1.35-.22.06-.62,0-.97.08-.72.19-1.42.6-2.11.88l.29-1.16.58-.15.28.35.2-.77.28.38.98-.49,2.59-.28c-.11.29-.73.48-1.02.61-.38.18-.79.4-1.1.54ZM17.83,72.06c-.72-.02.24,1.28.32,1.41.29.46,2.91,3.39,3.14,3.4.12,0,.35-.28.2-.58-.2-.39-1.35-1.26-1.74-1.73-.29-.35-1.77-2.5-1.92-2.5ZM78.42,76.68c.45.41,3.5-3.22,3.7-3.71.12-.3.19-.58.15-.91l-3.85,4.62ZM20.3,78.07c.16-.18.67-.3.82-.62.26-.52-.91-1.06-1.27-1.43-.87-.9-1.6-2.1-2.49-3l-.76,4.73-4.83.37c.01.56,4.33,5.84,4.72,5.87.09,0,.43-.33.1-.48-1.43-1.64-3.12-3.34-4.05-5.3,1.55,1.61,2.66,3.72,4.52,5.01l-1.06-1.74,1.64,1.54.1-.38.57.38c.27-.29-1.49-1.7-.38-1.45l-.39-.87.57.38c-.41-.94.04-.35.4-.7.12-.12.92-1.24.78-1.4l.56-.02-.19-.58.48.17c.33-.11.09-.44.15-.51ZM83.24,77.84l-.77-4.82-3.64,4.17c-.11.65,2.13,1.95,2.1,2.77l1.35-.77-.92,1.05.36.67.55-.18-.19.77.77-.58-.96,1.73.58-.29-.58.86,1.45-1.15c.21.62-1,1.1-1.25,1.73.53-.18,1.27-.84,1.67-1.22,1.32-1.28,2.42-3,3.53-4.46l-4.05-.29ZM29.68,78.41s-.48-.72-.6-.84c-.5-.51-2.7-2.37-3.26-2.71-2.15-1.27-2.65,1.02-3.85,2.49-.88,1.07-1.87,2.06-2.69,3.18.27,0,.56-.03.82.05,1.33.42,3.68,2.76,4.98,3.69,15.08,10.78,34.91,10.72,49.94-.11,1.79-1.29,3.54-3.45,5.72-3.63-.67-.91-1.6-1.74-2.31-2.6-.66-.8-1.39-2.13-2.04-2.77-.16-.16-.16-.28-.47-.21.19.98-.22.67-.64.99-.32.24-.52.61-.9.55l.39-.57c-.29-.23-2.82,2.05-3.29,2.39-10.08,7.2-22.15,9.14-33.94,4.88-5.15-1.86-9.23-4.93-13.44-8.33,1.3-.58,4.87,4.12,5.59,3.56ZM70.71,78.03c-.27-.24-2.69,1.51-3.15,1.77-10.2,5.6-21.96,6.18-32.57,1.29-1.3-.6-2.81-1.71-3.99-2.18-.17-.07-.74-.25-.76,0,10.24,7.41,24.78,8.05,35.97,2.25,1.21-.63,3-1.66,4.06-2.5.23-.18.53-.22.44-.62ZM88.25,78.03c-.96-.19-.69.24-1.07.76-1.31,1.81-2.74,3.48-4.13,5.21.38.08.52-.09.78-.28.36-.26,1.65-1.78,2.02-2.22.89-1.08,1.63-2.3,2.41-3.47ZM21.01,81.88c-.78-1.78-3.49-1.11-2.12.96.56-.12-.19-.81-.2-1.06.29-1.31,2.01.35,2.32.1ZM24.75,84.69c-.65-.59-2.07-2.14-2.78-2.52-.19-.1-.36-.13-.58-.1-.38.29,3.29,3.02,3.6,3.24,13.97,9.83,32.67,10.72,47.32,1.73.74-.45,1.84-1.05,2.25-1.79-.14-.28-.47.04-.65.12-1.21.61-2.28,1.48-3.46,2.12-13.07,7.03-28.14,6.77-41.17-.13-1.04-.55-3.89-2.1-4.54-2.69Z"/>
      <path class="cls-1" d="M29.68,78.41c-.71.56-4.29-4.14-5.59-3.56,4.2,3.4,8.28,6.47,13.44,8.33,11.79,4.25,23.86,2.31,33.94-4.88.48-.34,3-2.62,3.29-2.39l-.39.57c.38.06.58-.32.9-.55.43-.32.83-.01.64-.99.3-.07.31.05.47.21.65.64,1.39,1.97,2.04,2.77.71.87,1.63,1.69,2.31,2.6-2.18.18-3.93,2.33-5.72,3.63-15.03,10.83-34.86,10.89-49.94.11-1.3-.93-3.65-3.28-4.98-3.69-.26-.08-.56-.04-.82-.05.82-1.12,1.81-2.11,2.69-3.18,1.2-1.47,1.7-3.76,3.85-2.49.56.33,2.76,2.2,3.26,2.71.12.12.65.81.6.84ZM25.44,81.11c2.2,1.25,3.38-1.21,1.24-2.5l-2.59,3.17.76.67.58-1.35ZM73.15,78.85c-2.23.24.26,4.75,2,3.71,1.2-1.07-.81-3.84-2-3.71ZM29.03,80.59c-1.54.14-3.12,3.67-1.14,3.96,1.83.27,3.55-4.19,1.14-3.96ZM72.1,82.05c-.16-.19-.11-2.3-1.68-1.33-1.48.91.33,1.77.45,1.98.33.58-.38,1.83,1.3,1.71,1.03-.07,1.49-1.37.69-2.06-.25-.21-.71-.25-.75-.3ZM30.26,85.35l1.73-2.98-.67-.47-2.21,3.46,1.83.95.48-.66-1.15-.29ZM69.56,83.42s.23-.38.12-.77c-.43-1.55-2.68-.47-1.95.97.14.28.63.3.68.51.08.37-.1.75.1,1.21.56,1.32,3.08.27,2-1.42-.28-.44-.91-.46-.94-.51ZM34.69,83.62c-.05.56-1.05,3.2-1.64,3.08-.94-.19.85-2.94,1.05-3.37l-.95-.28c-.06,1.07-2.14,3.43-.59,4.13,1.71.77,2.19-2.2,2.89-3.25l-.78-.31ZM68.4,86.7c-.61-.94-.93-2.5-1.57-3.34-.17-.22-.2-.39-.55-.32l-.39,1.16c.95-.43,1.26,2.29,1.73,2.62l.78-.12ZM37,84.39l-.96-.2-1.54,3.85c1.05-.06,1.88,1.28,2.31-.19l-1.15-.3,1.34-3.16ZM63.78,85.16l-.47-.73c-.66.38-2.75.43-1.74,1.5l.67-.38.97,3.27.73-.47-1.11-3.19h.96ZM40.23,85.59c-.1-.1-.53-.1-.72-.24l-1.16,4.04h.96s.58-2.12.58-2.12c.41.85-.05,2.45.96,2.7l1.16-4.04-.96-.19c-.1.16.13,1.57-.39,1.73-.08-.34-.27-1.73-.43-1.88ZM60.89,86.12c.19-1.3-1.63-.67-1.74.11-.26,1.87,2.62,1.19,1.75,2.7l-.97-.11c.05,1.6,2.69.49,1.74-1.07-.41-.69-2.5-.83-1.43-1.81l.65.18ZM58.58,85.93l-2.12.39.97,3.85,1.92-.19v-.96s-1.34.38-1.34.38l-.2-1.15.96-.1-.19-.68-.96.2-.18-.88,1.01-.28.13-.58ZM42.24,90.12c2.21,1.4,3.28-2.92,1.74-3.77-1.72-.94-2.64,2.61-1.74,3.77ZM47.33,88.75c.89-1.95-.48-2.03-2.04-2.24.2,1.4-.11,2.87-.39,4.24h.96c.13-.13-.3-1.58.38-1.73l.22,1.71.94.21c.04-.62-.39-1.25-.4-1.84,0-.35.29-.28.32-.35ZM48.17,90.94c2.24.38,2.82-.95,2.49-2.98-.21-1.31-1.45-1.08-2.49-1.07.55,1.31-.11,2.7,0,4.04ZM55.08,88.47l-2.67.16v.58s2.89-.19,2.89-.19l-.23-.54Z"/>
      <path class="cls-1" d="M54.89,60.14c.14.13-.09.72.75.9.59.12.91-.07,1.4-.35.07,1.4.6,1.06,1.41,1.23,1.29.27,1.93.06,3.04.21.99.13,2.3.81,3.42,1.01,1.82.34,3.78-.1,5.23,1.13,2.03,1.73,1.75,5.72,1.92,8.15l-3.16.79-.1-.58h-1.15s0,.58,0,.58l-.39.19.58.19c-1.39.54-4.64.42-5.77,1.07-1.03.59-.23,2.64-1.07,3.55-1.54-1.98-.9-4.53-.94-6.81,0-.37-.09-2.68-.16-2.79-.05-.08-.38-.12-.51-.34-.54-.93-.77-1.69-1.91-2.15-1.39-.56-1.83.13-3.03.16-2,.04-3.19-1.32-4.71-1.85-.37-.13-.79-.06-1.17-.18-1.4-.45-2.82-.85-4.23-1.26-.05-.36.38-.14.58-.1,1.86.29,3.19.04,5-.47-.23-.71-.76-.09-1.15-.29.43-.09,1.11-.96,1.2-1.01.29-.15.89.03,1.21-.39.27,0,1.35,1.68,2.02,1.49l-1.16-1.73,2.86-.36Z"/>
      <path class="cls-1" d="M43.55,36.03l.58.19-.59,2.41c-.02.34.74.61.78.8.15.82-.44,1.32.48,2.18.11.1,1.34.84,1.42.86.31.06.68-.16,1.05-.1.09.02.63.87,1.58.97,1.16.13,1.29-.38,2.01-.5.48-.08,1.45.43,1.75-.08-.6-.36-1.35-.22-1.92-.48-.3-.14-.78-.63-.87-.63-.34-.02-2.06.35-2.68.32-1.21-.07-2.55-.25-2.62-1.71l1.15.19-.38.38c.88.26,1.89-.68,2.6-.68.77,0,1.61.79,2.13.88.69.11,1.14-.35,1.34-.33.3.02.85,1.2,1.53.92l-.09-.3.77-1.25.92,2.26c-.14.93,1.03,4.12-.72,3.32-.02.46.44.65.54,1.1.16.7-.11.99-.35,1.59l-.57-.58c.11.67.55,1.72-.19,2.12l-.19-.58c.11.85-.24,1.41-.87,1.92l-.29-.77c-.08,1.12-1.12,1.14-1.84,1.73l-.19-.39-.67.39-.19-.58-.19.58-.19-1.15-.19,1.35-.39-1.15-.19.77c-.34-.29-1.51-.84-1.63-1.15-.08-.21.14-.49.09-.59-.01-.02-.26.16-.48.02-.1-.06-1.67-1.46-1.73-1.56-.14-.24-.1-.51-.1-.77l-.29.38c-.5-.99-1.74-.88-1.45-2.12l-.38.77c-.13-.65-.25-1.34-.11-1.99.04-.19.03-.56.3-.51l.19.77v-1.35s-.77.58-.77.58v-1.93s-1.16,1.92-1.16,1.92l.43-2.75.72-1.01-.38-.19,1.15-.97-.38-.19c.72-.9,1.42-2.05.77-3.18l.77.19-.96-.96c1.15.26,1.64-.74,2.7-.97.18.19-.96,1.81-1.54,1.54Z"/>
      <path class="cls-1" d="M16.38,35.84c.73-.12,1.16-.71,1.91-.88,3.59-.78,5.42,3.32,4.15,6.27-.32.74-.96.78-1.15,1.16-.36.7.06,1.48-1.25,1.84-1.46.4-3.25-.43-3.71-1.89-.22-.67-.03-1.28-.18-1.75-.1-.3-3.32-1.69-3.82-1.79-.4-.08-.6-.09-.97.12.26-.88.78-1.5.58-2.5.51-.11.36.34.82.62.27.16,2.55,1.22,2.65,1.11.91-2.9-2.71-4.41-4.19-1.78-.94,1.67-.98,5.07,1.68,3.71.54,1.48-.83,2.46-2.13,1.45-2.88-2.23,1.11-10.41,4.73-7.62.64.49.98,1.09.87,1.92ZM17.16,40.85c.72,4.77,5.46,2,4.54-1.94-.61-2.6-5.07-3.39-5.7-.37l.87.34c.9-1.11,2.96-1.93,2.79.24-.06.07-1.62-.67-1.54.38.93.07,1.55.83,2.5.39l-1.06,2.7c-.2-1.22-1.57-1.14-2.41-1.73ZM22.16,41.23c.37-1.46.73-3.24-.38-4.43l-.09.37-.49-.08.88,2.01.08,2.13Z"/>
      <path class="cls-1" d="M53.95,9.06c-.87,1.61.79,3.44.77,5.2.45.09.31-.06.43-.25.42-.66,2.06-3.5,2.07-4.07,0-.18-.24-.45-.18-.5l2.7.19-.72,1.3c-.01,2.38-1.24,5.97-.81,8.23.07.38.43.49.38.87l-3.08-.58c.19-.38.5-.27.68-.76.6-1.62.34-4.07.86-5.79l-2.53,4.3-.55.32c-.4-1.46-.8-3.14-1.33-4.55-.09-.25-.04-.59-.41-.65.16,2.02-.67,4.05-.4,6.08.08.57.3.62.59,1.05-1.43-.51-1.38.28-2.31.68-.82.35-1.98.24-1.92-.87,2.06,1.14,2.41-1.48,2.67-3.01.37-2.16.42-4.52.75-6.7-.49-1.18-2.82-.28-1.99.86.26.36.96-.09.88.47-.29,2.11-4.05.04-1.84-2.03,1.64-1.53,3.54.32,5.3.2ZM57.04,17.15c-.58-.09-.32.14-.38.48-.1.56-.04,1.1-.39,1.63l1.73.19-.39-.96-.77.58.19-1.93Z"/>
      <path class="cls-1" d="M79.5,19.73c10.76,10.51,15.1,27.06,11,41.58-1.41,5-3.77,9.39-6.69,13.64l-.35-.63c16.61-22.84,6-55.14-20.66-64-.82-.27-2.17-.85-2.83-1.02-.41-.11-2.84-.14-2.94-.24v-.77c8.47,1.32,16.38,5.5,22.47,11.44Z"/>
      <path class="cls-1" d="M77.84,39.88v3.37c0,2.62,2.23,4.73,1.72,7.5-.09.49-.6.74-.57,1.26,2.81-2.8-1.54-6.45-.77-9.82l1.14,4.33c1.08.07.57.47.59.95,0,.08.6.77.69,1.26.26,1.49-.02,1.54-.4,2.69-.08.23.08,1.18-.68.79-.03.46-.04,1.18-.2,1.59-.1.24-.45.02-.38.33l2.58-.56,8.02,1.52-4.36,1.72-3.92-.76,1.35.38c.19.78-.52.36-.39.96.46-.18.57.31.73.37.48.17,1.33.03,1.58.6h-2.79c-.12,0-1-.53-1.06,0l2.5.77-.96.38,1.15.39c-.63-.43-3.03-.12-3.28-.28-.4-.25.08-.74.16-1.02.2-.68-.33-.95.81-.82l-.77-.57.77-.19c-1,.27-1.16-.51-1.75-.86-1.11-.65-2.16-.32-.44-1.93l-.12-2.03c-.51.44-.73.4-1.35.19v.77c-.43.03-.63.08-.58-.39l-.21.36c-.47-.09-.72-.27-1.04.21-.19-.39-.15-.45-.67-.39l-.1.97c-.27,0,.2-1.63-.48-1.74.21.57-.26,1.81-.17,2.18.12.47.93.37.76,1,.04.28-.07.26-.25.35-1.39.68-.77-1.65-1.4-1.98-.49-.26-.38,1.32-.77,1.34-.67-.53-1.38-.66-2.22-.57l.19.57c-.58-.13-.69-.51-1.35-.19.43-.71,2.1-.33,1.71-1.42s-2.69,1.12-3.06.84l.1-.39c-.8.43-.57-.06-.82-.17-.55-.25-1.19-.37-1.68-.78-.71.37.21,2-.67,1.92-.05-.06-.2-1.51-.18-1.61.03-.15.71-.48.75-.65.16-.83-.37-2.35.79-2.47-.01-.62-.25-.88,0-1.51.07-.16.45-.59.34-.05-.43.63.13.74.31,1.1.19.38-.11.9.48.76l.39-3.47.38,1.15c2.45-.97-.12-2.13.58-3.66.34.02.17.59.33.91.54,1.09,1.37.91.93,2.76-.16.67-.84,1.01-.49,1.72l.48-.77.19.58c.56-.32.54-1.35,1.25-1.35l-.1,1.73c.17-.39.82-.87.96-1.16.79-1.69.74-1.3,1.66-2.59.17-.25.3-.97.69-1.25v-.58c-.4-.32-1.1-.55-1.08-1.16l1.31-.23.23-2.09v3.18c0,.95-1.05,2.69-1.36,3.65-.44,1.38-.78,3.17.58,4.15-.36-.82-.8-1.63-.76-2.57.08-1.53,1.91-4,1.91-5.61v-3.95h2.5ZM77.65,40.07h-1.93v4.05h.19v-3.08l.39-.1-.39-.29h.57s.59,1.54.59,1.54v-1.73s-.77-.19-.77-.19h1.16s0,3.08,0,3.08l-.38-.77c-.29.32.47,3.87.77,3.47.19-.41-.19-1.04-.19-1.25v-4.72Z"/>
      <path class="cls-1" d="M49.88,29.44l.12-.34c.54.49,1.34.32,2.13.57.93.3,1.98.89,2.48,1.74.08.13-.09.38-.06.45.06.16.32.12.36.25.04.16.04,3.08,0,3.24-.09.48-.57.72-.86,1.06-.3-.29.19-1.28.06-1.49-.04-.07-1.1-1.08-1.17-1.12-.47-.3-2.86-.65-3.52-.67-1.26-.05-2.85,0-3.85.79l-.19-.39c-.55.65-1.37.35-2.02.96l.18-.69-.38-.18.58-1.06h-.77s.39-.57.39-.57l-.57-.29c.97-1.21,1.93-1.63,3.38-2,.81-.21,1.05-.23,1.88-.3.63-.05,1.08-.35,1.83.05Z"/>
      <path class="cls-1" d="M67.25,77.45c.3-.14.72-.36,1.1-.54.29-.14.91-.33,1.02-.61l-2.59.28-.98.49-.28-.38-.2.77-.28-.35-.58.15-.29,1.16c.69-.28,1.39-.69,2.11-.88.35-.09.75-.02.97-.08-1.13.52-2.39,1.05-3.66,1.35,1.05-1.31.52-2.82-.39-4.04,2.37-.46,4.81-.77,7.13-1.44.92-.27,3.81-1.63,4.42-1.35,1.03.46,1.35,2.63.38,3.27-2.66.65-5.26,1.49-7.89,2.22ZM74.57,74.95c.14.12.64-.57.29-.77-1.28.65-2.73.92-4.05,1.43-.13.05-.45-.25-.29.3,1.33.17,2.42-.81,3.64-.58l.21-.76.19.38Z"/>
      <path class="cls-1" d="M23.9,26.2c1.65-.1,3.05,1.56,4.62.77.02.65-.83,1.82-1.45,1.93-1.37.23-3.05-1.81-4.32-.87,1,.76,2.11,2.47,3.46,2.02l-1.83,2.31c-.36.14-.31-.6-.56-.97-.47-.69-3.45-3.21-4.26-3.84-.59-.46-1.06-1.07-1.82-.58-.25-.32,1.65-2.54,2.02-2.9,2.18-2.11,4.85-.8,4.15,2.12ZM20.1,24.91c-.09.09-.22.35-.21.46,0,.14,1.69,1.81,1.89,1.9s.38.17.58,0c1.29-1.42-.98-3.7-2.26-2.37Z"/>
      <path class="cls-1" d="M64.93,25.62c-13.57-8.57-31.52-3.84-39.53,9.89l-2.08,4.17c-.21-1.81,1.02-3.75,1.96-5.26,4.18-6.74,14.39-14.21,22.64-13.76.75.04,1.07.47,2.23.28,3.37-.54,7.32.4,10.54,1.69.58.23,3.86,1.81,4.06,2.1s.2.55.18.88Z"/>
      <path class="cls-1" d="M20.3,78.07c-.06.07.17.4-.15.51l-.48-.17.19.58-.56.02c.15.16-.65,1.28-.78,1.4-.36.35-.81-.24-.4.7l-.57-.38.39.87c-1.11-.25.65,1.16.38,1.45l-.57-.38-.1.38-1.64-1.54,1.06,1.74c-1.86-1.29-2.97-3.4-4.52-5.01.92,1.96,2.62,3.66,4.05,5.3.33.15-.01.48-.1.48-.39-.03-4.71-5.31-4.72-5.87l4.83-.37.76-4.73c.89.89,1.62,2.09,2.49,3,.36.38,1.54.91,1.27,1.43-.15.32-.66.44-.82.62Z"/>
      <path class="cls-1" d="M83.24,77.84l4.05.29c-1.12,1.46-2.22,3.18-3.53,4.46-.4.38-1.14,1.04-1.67,1.22.25-.63,1.47-1.11,1.25-1.73l-1.45,1.15.58-.86-.58.29.96-1.73-.77.58.19-.77-.55.18-.36-.67.92-1.05-1.35.77c.03-.81-2.21-2.11-2.1-2.77l3.64-4.17.77,4.82Z"/>
      <path class="cls-1" d="M63.35,12.57c.86-.13,2.06.28,2.66.91,2.72,2.89-1.41,9.86-5.02,7.52-2.99-1.94-.76-7.98,2.36-8.44ZM64.89,13.72c-.96-.99-2.44,1.21-2.82,2-.43.89-1.54,4.03-.41,4.6.21.11.43.11.66.09,1.69-.17,3.71-5.52,2.57-6.7Z"/>
      <path class="cls-1" d="M26.93,17.58c4.27-.69,7.63,6.84,3.62,8.25-4.83,1.69-8.66-7.43-3.62-8.25ZM26.06,18.93c-1.23,1.23,2.28,6.05,4.1,5.94,2.15-.13-.17-3.73-.87-4.54-.61-.71-2.31-2.32-3.23-1.4Z"/>
      <path class="cls-1" d="M43.93,56.84c-1.44-.63-1.76-.17-2.55,1.02-.71,1.06-1.19,2.24-1.21,3.52,0,.25.37.62.1,1.05-.4-.78-.99-.47-1.5-.65-.04-.01-.04-.22-.14-.25-.52-.17-1.2-.17-1.73-.42l-.28.36v-.77s-.2.38-.2.38l-.49-.19.22-2.49c.56-.42.74-1.68,1.11-2.08.04-.05.91-.72.97-.75,1.33-.75,1.53-.21,2.56-.13.39.03.79-.21,1.31-.13.37.06,2.24,1.17,1.84,1.53Z"/>
      <path class="cls-1" d="M42.97,8.29l-.32.73c-12.67,2.15-22.72,9.92-29,20.91-.91,1.58-1.39,3.67-2.86,4.75,5.05-13.7,17.71-24.14,32.17-26.39Z"/>
      <path class="cls-1" d="M24.75,84.69c.65.59,3.5,2.14,4.54,2.69,13.04,6.89,28.1,7.16,41.17.13,1.19-.64,2.26-1.52,3.46-2.12.18-.09.51-.41.65-.12-.41.74-1.52,1.34-2.25,1.79-14.66,8.98-33.36,8.1-47.32-1.73-.31-.22-3.98-2.95-3.6-3.24.21-.03.38,0,.58.1.71.37,2.13,1.93,2.78,2.52Z"/>
      <path class="cls-1" d="M36.23,12.53c-.18.36-.23.6-.16,1.01.46,2.44,4.36,6.23,1.18,8.21-1.39.86-2.86.55-3.81-.75s-1.48-4.11-2.41-5.25c-.29-.35-.69-.19-.97-.42.34-.35,2.61-1.47,2.89-1.25-.08.23-.21.42-.21.67,0,.7,1.79,4.75,2.25,5.47.97,1.51,2.78.55,2.55-.8-.06-.34-2.07-4.89-2.31-5.22-.29-.41-.61-.66-1.13-.71l2.12-.96Z"/>
      <path class="cls-1" d="M86.32,34.1c-.3.01-.57-.21-.87-.2-.6.03-4.93,1.93-5.56,2.34-1.08.7-.86,2.36.37,2.48.58.06,5.1-1.89,5.74-2.34.44-.31.85-1.25,1.09-.81l.77,1.99c-.51-.02-.84-.25-1.39-.15-2.14.35-6.27,4.06-8.02,1.19-.41-.67-.53-1.67-.37-2.43.49-2.37,5.84-2.67,6.99-4.76l1.25,2.69ZM79.19,38.15l-.38.1c0,1.19,2.48,1.49,3.08.57-.39-.44-.62.24-.67.25-.45.11-2.08-.23-2.03-.92Z"/>
      <path class="cls-1" d="M25.63,61.08l-.18.65.31.28,3.53-.16c-.18-.41-.97-.1-1.41-.23-.28-.09-.4-.46-.81-.54-1.19-.23-1.32.46-1.64-1.35,2.54.61,5.55,1.07,8.02,1.9.25.09.59.06.65.41l-6.42,1.68-8.03-2.74,5.47-1.07.5.98h-4.82v.19h4.82Z"/>
      <path class="cls-1" d="M77.65,21.38c-.27,0-.57-.03-.83.04-.72.21-4.59,4.18-4.73,4.92-.31,1.56,1.45,1.68,2.57.82.63-.48,3.56-3.42,3.72-3.99.08-.26.03-.56.04-.82.2-.23,1.97,1.53,1.73,1.73-.48-.02-.82-.07-1.26.18-.95.55-2.67,2.92-3.74,3.77-1.45,1.14-2.85,1.14-3.94-.5-1.17-1.76-.2-2.88.95-4.23.68-.8,2.6-2.28,3-2.97.21-.38.22-.65.18-1.07l2.31,2.12ZM74.38,28.32c-.23-.6-.79-.14-1.36-.26-.45-.1-.7-.5-1.15-.51.29,1.08,1.64,1.03,2.5.77Z"/>
      <path class="cls-1" d="M73.61,17.73l-1.16,2.12-.38-.1c.15-.79.26-1.54-.27-2.23-3.34-.59-1.16,2.12-.93,3.44s.09,2.84-1.2,3.53c-1.97,1.06-3.4-.96-4.73-2.03l1.92-2.22c.09.56-.2,1.09-.21,1.64-.03,2.14,2.55,2.16,2.51.22-.03-1.14-1.03-2.36-.96-3.68.1-1.81,1.6-2.66,3.29-2.14.79.24,1.17,1.52,2.11,1.46Z"/>
      <path class="cls-1" d="M70.71,78.03c.09.4-.21.44-.44.62-1.05.84-2.84,1.87-4.06,2.5-11.18,5.8-25.73,5.16-35.97-2.25.02-.24.59-.06.76,0,1.18.47,2.69,1.58,3.99,2.18,10.61,4.89,22.37,4.31,32.57-1.29.46-.25,2.88-2.01,3.15-1.77Z"/>
      <path class="cls-1" d="M30.06,66.47l7.42-1.93c.76-.04-.35.93-.32,1.32l-3.05.61c1.35-.24,2.33.8,3.66.19-.43-1-.16-1.16.2-2.11.88.42,2.57.58,3.32,1,.25.14.39.21.33.53-.59-.1-1.15,1.2-1.4,1.29-1.35.49-3.61.52-5.06,1.22l-4.52-1.75,2.31-.38h-2.89Z"/>
      <path class="cls-1" d="M9.26,39.31c.34-.05.18.44.19.67.08,1.78-.42,3.13-.58,4.82-.85,9.11.33,17.03,4.78,25.08.55.99,2.63,3.74,2.84,4.48.1.35.07.36-.21.59-3.66-4.96-6.32-10.48-7.52-16.56-1.24-6.31-.97-12.83.49-19.08Z"/>
      <path class="cls-1" d="M81.5,25.43l1.54,2.5c-.24.04-.48-.17-.68-.17-1.2.05-4.8,3.4-6.24,3.85.33,1.51,1.66,1.92,3.07,1.72l-2.22,1.53-2.79-4.62c.2,0,.4.12.6.09.54-.09,6.03-3.75,6.23-4.14.1-.19.1-.43.1-.64l.38-.12Z"/>
      <path class="cls-1" d="M41.04,11.18c-.46.53-.43.94-.37,1.62.19,1.92,1.18,4.12,1.33,6.09.75-.08,1.81-.27,2.2-.98.23-.41.06-1.28.69-1.14l.39,2.5-5.39.96c.09-.26.33-.37.39-.68.1-.55-1.26-6.66-1.56-7.11-.23-.34-.7-.17-.56-.69l2.89-.58Z"/>
      <path class="cls-1" d="M49.33,38.15c-.06-.51,1.09-.67.05-1.64l.34-.48c-1.24-.25-2.17-.62-3.47-.2l1.16-.77-.38-.29-.58.29c-.09-1.33,1.34-1.49,2.39-1.52.7-.02,2.84.29,3.44.61,1.66.9.83,1.5,1.68,2.75-.13.85-.43-.08-.51-.11-.15-.06-.35.03-.44,0,.02,0,.29.27.4.3-.36.43-.2,1.5-.78,1.44v.19c.78.05.58.76.58,1.35l-1.51-.03c-.45-.88,0-2.26,1.13-1.9.04-.03-.34-.69-.47-.78-.27-.2-.71-.04-.69-.37.44-.12.88-.25,1.35-.2-.51-.16-1.07-.17-1.45-.57-.35,0-1.1,2.18-1.06,2.58,0,.1,1.27.66.77,1.65l-.19-.38c-1.12.38-.82-.23-1.74-.39l1.16-1.25c0-.08-.93-.25-1.16-.29.01.12.27.35.19.58h-.58s.19.77.19.77c-1.32.29-2.99.04-1.8-1.55.7-.12,1.34.08,1.99.2Z"/>
      <path class="cls-1" d="M22.74,35.45l-.4-.12c-.05-.39-.23-.57-.5-.82-.43-.4-5.64-3.61-5.99-3.65-.3-.04-.54.15-.82.16l1.64-2.7c.06,1.08,1.05,1.48,1.85,2.01.68.45,4.09,2.66,4.56,2.78.51.13.63-.64,1.01-.07l-1.35,2.41Z"/>
      <path class="cls-1" d="M63.72,55.93c.74,1.01.66,2.61.44,3.8h-.57c-.19-1.87-1.44-3.2-3.29-3.58-.46-.09-3.15.4-3.24.54s-.03.5-.22.65l-.59-.12-.2,1.16-.38-.29.58-2.22.38.19c.29-1.53,2.75-1.9,4.1-1.69.73.12,2.55.97,2.97,1.55Z"/>
      <path class="cls-1" d="M74.95,60.5c.06.41.02.31-.24.43-.42.19-3.3.92-3.69.91l-5.51-1.43c0-.18,1.72-.48,2.02-.66.16-.1-.11-.37.09-.49,1.06-.66,4.31-.3,5.46.15.58.22,1.13,1.08,1.88,1.11Z"/>
      <path class="cls-1" d="M62.62,58.96l-1.04,1.94-1.07.18c.37-.72.78-1.44.91-2.26.03-.2.21-.67-.14-.62-.13.66-.89,3.16-1.83,2.89s.87-2.77.38-3.47l-1.26,3.08-.95-.39c.48-1.01.09-3.68,1.47-3.8.12-.01,2.09.75,2.32.88.69.38,1.77,1.66,1.8,2.45.06,1.38-1.18,1.69-.89.48.1-.4.47-.79.29-1.35Z"/>
      <path class="cls-1" d="M65.47,62.11c.61.34.33.03,1.09.12,1.61.18,2.79,1.09,4.5.93.58-.05,1.02-.31,1.58-.34l-.19-.38,1.16-.19c-.9.85-1.45,2.08.2,2.31l-.2.38h1.93s-1.73.58-1.73.58c2.62.19,5.28-.75,7.8-.96.26-.02,1.19-.16,1.25.19l-11.17,1.74c-.84-4.13-4.74-3.23-7.9-3.86.02-.39.72-.12,1.03-.19.18-.04.08-.64.66-.31Z"/>
      <path class="cls-1" d="M88.25,39.11l.77,2.89c-.92-.36-1.23-.31-2.16-.13-.97.18-5.48,1.25-6.04,1.67-.21.16-.31.94-.57.4-.13-.28-.77-2.6-.67-2.7.39-.07.5.35.87.38s6.68-1.51,7.08-1.73.09-.93.72-.77ZM81.31,41.81h-1.16s.48,1.54.48,1.54l1.45-.77-.96-.38.2-.38Z"/>
      <path class="cls-1" d="M51.45,59.53l-.79-.09-.18-.87c-.37.08-.5.32-.77-.09.38-.3.71-.25.57-.87-1.12.52-1.83-.25-2.89-.38.2.83,1.22.88,1.87,1.31.8.53,1.22,1.11,1.41,2.06l-1.15-.3.18-1.14c-.52.47-1.41.57-2.01.17-.29-.19-.21-.68-.59-.56s-.25.37,0,.58c.29.25,2.02,1.09,2.02,1.25-.37.58-.95.39-1.54.48l.2-.38-.56.18c-.23-1.1-2.26-.88-1.27-2.31l.86-.27c0-.07-.84-.54-.97-.58-.24-.06-.59.54-.76,0-.03-.11,1.82-.86,1.73-1.44-.13-.12-2.67,1.76-3.27,1.44.62-.51,2.13-1.35,2.88-1.55,1.68-.44,5.16,1.29,5.01,3.38Z"/>
      <path class="cls-1" d="M37.34,38.01c.06.02.08.32.28.39.3.1.59-.1.82-.06,1.07.17,1.33,2.9.35,3.48-.21.12-.52-.02-.59.04-.1.07-.09.4-.35.49-.81.29-2.2-.22-2.67-.94-.96-1.5.29-4.23,2.16-3.41ZM35.48,40.43l-.21-.35v1.15s.35-.16.35-.16c.04.26.54.97.8.74.34-.3-.33-.41-.38-.52-.13-.3-.16-.69-.2-1.02l-.36.16Z"/>
      <path class="cls-1" d="M51.64,58.38c-.54-.34-.75-.91-1.25-1.34-1.39-1.19-1.97-.6-2.2-3.02-.02-.26.2-.62.18-.65-.04-.05-1-.11-.97-.77.2-.18,1.87,1.59,3.03.33.25-.28.15-.84.82-.91l.5,4.44-.11,1.92Z"/>
      <path class="cls-1" d="M77.07,39.5l-.75-.02c-1.67-4.9-5.11-9.3-9.26-12.33l.18-.74c4.42,3.25,8.03,7.92,9.82,13.1Z"/>
      <path class="cls-1" d="M22.93,59.92l-.58.11c-1.46-3.57-2.14-7.88-1.92-11.77.04-.79.21-2.55.39-3.27.09-.33.21-.48.47-.68.15.48.13,1.14.1,1.64-.14,2.44-.46,4.43-.2,6.93s.91,4.78,1.73,7.03Z"/>
      <path class="cls-1" d="M38.93,46.43c-.07-.11-.17-.26-.19-.38.32-.22,2,.55,2.38.8,1.83,1.18,5.02,3.9,5.98,5.97.15.33.29.76.31,1.13-.34-.28-.69-.72-.96-1.07-1.16-1.45-2.76-2.7-4.05-4.27-.14-.17-.14-.57-.21-.63-.06-.05-.42.15-.7.05-.81-.32-1.15-1.24-2.56-1.59.41.61,1.42.82,1.35,1.73,1.14-.44.67.23,1.21.71.96.86,1.97,1.65,3.04,2.84.45.5,1.06,1.27,1.4,1.85.37.63.27.21.54.5.05.05.61,1.17.56,1.23l-1.35-.39.77-.38h-1.35s.77-.39.77-.39c-.71-.11-1.57-.36-1.99-.97-.53-.77-.6-.63-1.3-1.23-.12-.1-.81-1.03-.75-1.08.28-.08,1.06.51,1.15,0l-1.92-.68.77-.48-1.15-.2.58-.38h-1.15s.96-.58.96-.58c-.31-.11-1.12-.24-1.3-.44-.08-.09,0-.37-.09-.46-.18-.22-1.13-.48-1.3-1.12-.11-.47.35-.15.58-.09Z"/>
      <path class="cls-1" d="M74.66,57.99c-.25-.03-1.83-.47-1.83-.67.26-.23.49-.57.78-.76,1.42-.93,2.1.16,3.65-.1.06.47-.4.66-.74.8l.17.35-1.74.19h2.7v.19c-.95-.08-2.05.11-2.99,0Z"/>
      <path class="cls-1" d="M15.22,54.15l.1.38h.39s.38-.39.38-.39l.2.4,1.06-.39-.1.58,1.06-.19v.58s.77-.39.77-.39l.09.97h.68s0,.95,0,.95l.58-.19-.38.39c-.13.2.51.34.56.41.09.13-.25.68-.18.94-.6-.45-.53-1.32-1.14-1.84-.51-.45-1.66-1.22-2.32-1.34-.61-.12-1.38-.17-1.99-.04-.44.09-2.13,1.22-2.26,1.11l.4-.96h.67s.09-.77.09-.77l.67.58.29-.77h.38Z"/>
      <path class="cls-1" d="M72.64,57.61l.19,1.54-3.27-.58.77-.38-5.39.57c-.31-.23,0-.35.28-.38,2.47-.29,4.94-.62,7.42-.77Z"/>
      <path class="cls-1" d="M85.16,48.18s-.08.2.16.37c.12.08.5-.15.42.2-.42.01-.49.42-.82.63-.19.13-.59.08-.7.17-.02.02.14.29,0,.47-.4.49-1.03.45-.79,1.63l-.38-.38.19,1.92-.38-.77-.19.96c.04-.6-.18-.81-.77-.77l.75-.41-.56-1.03.76-.41-.18-1.04.66.18.28-.31c.07-.28-.37-.58.11-.83l.56.38c.49-.08.41-1.32.88-.95Z"/>
      <path class="cls-1" d="M32.37,43.92c-.4.03-.64.3-.86.59-1.26,1.66-1.7,4.25-2.84,6.02l-1.5,4.18c.1-1.22.55-2.43.96-3.57.51-1.43,2.62-7,3.86-7.52l.39.29Z"/>
      <path class="cls-1" d="M88.25,78.03c-.77,1.16-1.52,2.38-2.41,3.47-.36.44-1.66,1.96-2.02,2.22-.26.19-.4.36-.78.28,1.39-1.73,2.83-3.41,4.13-5.21.38-.52.11-.94,1.07-.76Z"/>
      <path class="cls-1" d="M31.99,67.63l-.19.38c.67.17,1.47.28,2.12.48.34.11.95.61,1.06.61.09,0,1.18-.55,1.6-.65.5-.13,1.06-.24,1.58-.35.2-.04.63-.26.59.1-1.07.14-2.94,1.19-3.93,1.15-.25,0-4.31-1.56-4.62-1.75-.12-.07-.39-.27-.31-.36.84-.42,1.28.39,2.12.38Z"/>
      <path class="cls-1" d="M57.61,68.4l-2.25.54-10.08,1.38,4.58-.91c2.59-.24,5.15-.94,7.75-1.02Z"/>
      <path class="cls-1" d="M52.8,29.67c-.84-.46-1.42-1.2-2.21-1.74-.66-.44-3.17-1.94-3.81-1.88s-1.41.72-2.07.64c.88-.71,1.93-1.07,3.05-.74.68.2,3.49,1.81,4.06,2.29.23.19,1.17,1.22.98,1.43Z"/>
      <path class="cls-1" d="M17.83,72.06c.16,0,1.63,2.15,1.92,2.5.39.47,1.54,1.34,1.74,1.73.15.3-.07.58-.2.58-.23,0-2.85-2.94-3.14-3.4-.08-.13-1.04-1.42-.32-1.41Z"/>
      <path class="cls-1" d="M87.67,60.5l-3.55.95-4.73-1.53c1.62-.11,3.57.9,5.11.97,1.03.05,2.1-.56,3.17-.39Z"/>
      <path class="cls-1" d="M40.66,67.82c-1.25,1.29-3.4,2.59-5.2,1.73l5.2-1.73Z"/>
      <path class="cls-1" d="M78.42,76.68l3.85-4.62c.04.33-.02.6-.15.91-.2.5-3.25,4.13-3.7,3.71Z"/>
      <path class="cls-1" d="M72.64,56.84c-.12.27-.97.31-1.28.36-2.31.34-3.88,0-6.14-.17-.26-.02-.81.17-.68-.28,2.68-.14,5.41.43,8.09.1Z"/>
      <path class="cls-1" d="M64.74,26.4l.76-.21c-.46-3.22,2.97-1.04.77.29-.44.27-1.3.56-1.53-.08Z"/>
      <path class="cls-1" d="M49.91,7.71c-.16.27-.97.5-1.27.56-1.67.34-3.58.21-5.28.59l1.66-.76c1.15.43,1.59-.24,2.5-.37.75-.11,1.62.04,2.39-.01Z"/>
      <path class="cls-1" d="M34.3,62.62l-.29.38-3.76.96,4.62-.77-.19.29-7.13,1.25c-.11-.55.16-.31.41-.45,1.47-.8,3.13-.89,4.65-1.29.19-.05.01-.57.9-.19l-.38-.38,1.16.19Z"/>
      <polygon class="cls-1" points="75.15 37.76 71.78 38.16 63.2 38.05 75.15 37.76"/>
      <path class="cls-1" d="M58,50.86c-.63.14-.32-.69-.47-1.16-.5-1.47-1.59-2.86-1.83-4.42,1.27,1.57,2.18,3.54,2.31,5.59Z"/>
      <path class="cls-1" d="M15.97,49.09c0-.72.71-.1.61.04l-.38.29,1.15.58-.38.77.77.3c.11.5-.13.29-.4.5l.21,1.04c-.73-.37-.63-1.41-.98-2.16-.02-.05-.58-.83-.62-.87-.33-.32-1.02-.75-1.48-.83l.38-.29,1.13.63Z"/>
      <path class="cls-1" d="M34.3,63.97c-.08.38-.39.33-.68.38-1.62.31-3.97.93-5.48,1.07-.35.03-.63-.09-.97-.11-.57-.52,1.4-.38,1.61-.41,1.84-.26,3.66-.73,5.52-.94Z"/>
      <path class="cls-1" d="M46.58,38.59c.11.18.04.51.15.71.2.37.65.24.67.58-1.68.21-1.83-.83-2.5-2.02.21-.23.24-.37.58-.2.06.03,1.06.86,1.1.92Z"/>
      <path class="cls-1" d="M79.77,65.7l-7.71,1.34c.07-.39.41-.31.68-.38,2.14-.54,4.82-.64,7.03-.96Z"/>
      <path class="cls-1" d="M61.66,53.37l-1.92-.58.58-.38-2.12-.39,1.35-.57c-.95-.11-1.59-1.24-1.54-2.12.72.54,1.15,1.61,1.73,2.21.2.21,2.3,1.45,1.92,1.83Z"/>
      <path class="cls-1" d="M44.77,66.21c.19.12.47.12.62.24.56.47.17,1.99.28,2.71l-.38-.09c.37-.67.21-1.52-.02-2.21l-1.91-.02,1.16-.39-.77-.57.78-.1c.1.11.14.35.25.41Z"/>
      <path class="cls-1" d="M55.11,53.75c-.28.02-.34-.69-.36-.89-.14-1.19-.27-2.58-.02-3.73l.38,2.02v2.6Z"/>
      <path class="cls-1" d="M58.19,68.98c.09.59-.14.31-.49.38-1.72.31-3.55.43-5.29.58l5.78-.96Z"/>
      <polygon class="cls-1" points="49.14 37.57 46.57 37.92 45.67 37.19 47.86 37.39 48.01 37.03 49.14 37.57"/>
      <polygon class="cls-1" points="55.3 60.3 57.61 57.8 56.66 59.83 55.3 60.3"/>
      <path class="cls-1" d="M55.49,68.2c-.62.2-.47-.36-.86-.4-.83-.08-.57.37-.95.42-.45.06-1.2.01-1.65-.11,1.01-.5,2.81-1.17,3.47.09Z"/>
      <path class="cls-1" d="M31.41,65.12l-4.52,1.16-.11-.56-2.07-.35-1.77-.83c.53-.03,1.03.15,1.54.29.75.2,2.47,1,3,1.05,1.03.1,2.79-.92,3.94-.76Z"/>
      <path class="cls-1" d="M21.01,81.88c-.31.25-2.03-1.41-2.32-.1,0,.25.76.94.2,1.06-1.37-2.08,1.34-2.74,2.12-.96Z"/>
      <path class="cls-1" d="M48.94,36.8c-.69-.62-1.66-.33-2.5-.49-.22-.04-.63.02-.58-.28,1.03.08,3.02-.85,3.08.77Z"/>
      <path class="cls-1" d="M62.82,54.72l-1.77-.83-1.7-.32c1.42-.45,2.66-.12,3.47,1.15Z"/>
      <path class="cls-1" d="M53.76,8.48l-1.01-.04-2.26-.72c1.06.05,2.63-.26,3.27.77Z"/>
      <polygon class="cls-1" points="83.82 62.23 83.24 62.52 83.82 63 82.28 62.81 82.32 62.26 82.66 62.14 82.28 61.85 83.82 62.23"/>
      <path class="cls-1" d="M69.17,42.39h-3.28v-.39h2.99s.3.26.29.39Z"/>
      <polygon class="cls-1" points="60.28 47.43 60.31 49.32 59.73 49.32 59.74 47.2 60.28 47.43"/>
      <path class="cls-1" d="M96.89,44.67l-.36-1.32c.79.51.93,1.76.1,2.32-.74.5-.42-1.03.26-.99Z"/>
      <path class="cls-1" d="M47.02,61.27c-1.02.29-2.4-1.15-.77-1.07l.77,1.07Z"/>
      <path class="cls-1" d="M68.98,55.68l-2.12.39c-.11-.51.13-.33.38-.48.41-.24.88-.37,1.26-.67l.48.77Z"/>
      <polygon class="cls-1" points="63.76 49.88 63.97 49.52 63.65 50.26 62.24 50.29 62.24 49.52 63.76 49.88"/>
      <path class="cls-1" d="M37.58,55.49l-2.89.77c.61-.76,1.97-1.13,2.89-.77Z"/>
      <path class="cls-1" d="M3.62,44.93c.14.23,0,.65.04.92-.79-.5-1.45-1.21-.48-1.93-.25.99.29.76.44,1Z"/>
      <path class="cls-1" d="M96.73,56.84l-.58-1.54c1.03-.26,1.57,1.12.58,1.54Z"/>
      <path d="M47.33,88.75c-.03.06-.33,0-.32.35,0,.59.43,1.23.4,1.84l-.94-.21-.22-1.71c-.68.15-.25,1.61-.38,1.73h-.96c.28-1.37.58-2.84.39-4.24,1.56.21,2.93.29,2.04,2.24Z"/>
      <path d="M40.23,85.59c.16.15.35,1.53.43,1.88.52-.16.28-1.58.39-1.73l.96.19-1.16,4.04c-1.02-.25-.55-1.85-.96-2.7l-.58,2.12h-.96s1.16-4.05,1.16-4.05c.19.14.62.14.72.24Z"/>
      <path d="M69.56,83.42s.66.07.94.51c1.08,1.69-1.43,2.74-2,1.42-.2-.46-.01-.85-.1-1.21-.05-.21-.54-.24-.68-.51-.73-1.44,1.52-2.52,1.95-.97.11.39-.14.73-.12.77ZM69.9,84.25c-.77-.8-1.32.52-.42,1.09.64.26.76-.74.42-1.09Z"/>
      <path d="M72.1,82.05c.04.05.51.09.75.3.8.69.34,1.99-.69,2.06-1.68.12-.97-1.13-1.3-1.71-.12-.21-1.93-1.07-.45-1.98,1.57-.97,1.52,1.14,1.68,1.33ZM72.45,83.81l-.08-.97-.88-.18c-.1.66.22,1.25.96,1.15Z"/>
      <path d="M48.17,90.94c-.11-1.35.55-2.74,0-4.04,1.05-.01,2.28-.24,2.49,1.07.32,2.02-.25,3.36-2.49,2.98ZM48.94,90.36c2.01.11.75-3.94.19-2.77l-.19,2.77Z"/>
      <path d="M42.24,90.12c-.9-1.16.03-4.71,1.74-3.77,1.54.85.47,5.16-1.74,3.77ZM42.78,89.78c.89.59,1.59-2.66.86-2.89-1-.31-1.22,2.65-.86,2.89Z"/>
      <path d="M29.03,80.59c2.41-.22.69,4.24-1.14,3.96-1.98-.3-.4-3.82,1.14-3.96ZM27.56,83.81c.67.11.86-.15,1.23-.59.23-.26,1.22-1.74.59-1.91-1.12-.29-2.01,2.33-1.82,2.5Z"/>
      <path d="M34.69,83.62l.78.31c-.7,1.05-1.18,4.02-2.89,3.25-1.56-.7.52-3.05.59-4.13l.95.28c-.2.43-1.99,3.18-1.05,3.37.59.12,1.59-2.52,1.64-3.08Z"/>
      <path d="M73.15,78.85c1.19-.13,3.2,2.64,2,3.71-1.74,1.04-4.23-3.47-2-3.71ZM72.84,79.57c-.28.28,1.14,2.63,1.83,2.5.55-.35.04-.94-.21-1.33-.36-.57-.85-1.27-1.62-1.17Z"/>
      <path d="M25.44,81.11l-.58,1.35-.76-.67,2.59-3.17c2.14,1.29.95,3.75-1.24,2.5ZM26.02,80.92c.59.25,1.67-1.02.86-1.35-.29-.12-1.04,1.17-.86,1.35Z"/>
      <polygon points="58.58 85.93 58.45 86.51 57.43 86.79 57.61 87.66 58.58 87.47 58.77 88.15 57.81 88.24 58.01 89.39 59.35 89.01 59.35 89.98 57.43 90.16 56.46 86.32 58.58 85.93"/>
      <path d="M60.89,86.12l-.65-.18c-1.07.98,1.02,1.12,1.43,1.81.94,1.56-1.7,2.67-1.74,1.07l.97.11c.87-1.51-2-.83-1.75-2.7.11-.78,1.93-1.41,1.74-.11Z"/>
      <path d="M63.78,85.16h-.96s1.11,3.19,1.11,3.19l-.73.47-.97-3.27-.67.38c-1.01-1.07,1.08-1.11,1.74-1.5l.47.73Z"/>
      <path d="M37,84.39l-1.34,3.16,1.15.3c-.43,1.47-1.26.13-2.31.19l1.54-3.85.96.2Z"/>
      <polygon points="30.26 85.35 31.41 85.64 30.93 86.3 29.1 85.35 31.31 81.89 31.99 82.36 30.26 85.35"/>
      <path d="M68.4,86.7l-.78.12c-.47-.33-.78-3.05-1.73-2.62l.39-1.16c.34-.08.38.1.55.32.64.84.96,2.4,1.57,3.34Z"/>
      <polygon points="55.08 88.47 55.3 89.01 52.41 89.2 52.41 88.63 55.08 88.47"/>
      <path d="M17.16,40.85c.84.59,2.2.51,2.41,1.73l1.06-2.7c-.95.45-1.57-.32-2.5-.39-.08-1.05,1.48-.31,1.54-.38.17-2.17-1.89-1.36-2.79-.24l-.87-.34c.63-3.01,5.09-2.23,5.7.37.92,3.94-3.82,6.71-4.54,1.94Z"/>
      <path d="M22.16,41.23l-.08-2.13-.88-2.01.49.08.09-.37c1.11,1.19.76,2.97.38,4.43Z"/>
      <path d="M57.04,17.15l-.19,1.93.77-.58.39.96-1.73-.19c.36-.53.3-1.07.39-1.63.06-.35-.21-.57.38-.48Z"/>
      <path d="M77.65,40.07v4.72c0,.21.38.84.19,1.25-.29.4-1.06-3.15-.77-3.47l.38.77v-3.08s-1.15,0-1.15,0l.77.19v1.73s-.59-1.53-.59-1.53h-.57s.39.27.39.27l-.39.1v3.08h-.19v-4.05h1.93Z"/>
      <path d="M74.57,74.95l-.19-.38-.21.76c-1.22-.23-2.31.76-3.64.58-.16-.56.15-.25.29-.3,1.32-.51,2.77-.78,4.05-1.43.35.2-.15.89-.29.77Z"/>
      <path d="M20.1,24.91c1.28-1.34,3.55.94,2.26,2.37-.21.16-.37.09-.58,0s-1.89-1.76-1.89-1.9c0-.11.12-.37.21-.46Z"/>
      <path d="M64.89,13.72c1.13,1.18-.88,6.53-2.57,6.7-.23.02-.45.02-.66-.09-1.12-.58-.02-3.72.41-4.6.38-.79,1.86-3,2.82-2Z"/>
      <path d="M26.06,18.93c.91-.91,2.61.7,3.23,1.4.7.81,3.02,4.41.87,4.54-1.82.11-5.33-4.71-4.1-5.94Z"/>
      <path d="M79.19,38.15c-.06.69,1.58,1.03,2.03.92.05-.01.28-.69.67-.25-.6.92-3.08.61-3.08-.57l.38-.1Z"/>
      <path d="M74.38,28.32c-.87.27-2.21.31-2.5-.77.45,0,.69.41,1.15.51.56.12,1.13-.34,1.36.26Z"/>
      <polygon points="81.31 41.81 81.12 42.19 82.08 42.58 80.64 43.35 80.16 41.81 81.31 41.81"/>
      <path d="M35.48,40.43l.36-.16c.04.33.07.72.2,1.02.05.11.72.22.38.52-.26.23-.76-.48-.8-.74l-.35.16v-1.15s.21.35.21.35Z"/>
      <path class="cls-1" d="M69.9,84.25c.34.35.22,1.35-.42,1.09-.91-.56-.36-1.89.42-1.09Z"/>
      <path class="cls-1" d="M72.45,83.81c-.74.1-1.07-.5-.96-1.15l.88.18.08.97Z"/>
      <path class="cls-1" d="M48.94,90.36l.19-2.77c.55-1.17,1.82,2.88-.19,2.77Z"/>
      <path class="cls-1" d="M42.78,89.78c-.36-.24-.14-3.2.86-2.89.73.23.02,3.48-.86,2.89Z"/>
      <path class="cls-1" d="M27.56,83.81c-.18-.17.7-2.79,1.82-2.5.63.16-.36,1.64-.59,1.91-.38.44-.56.7-1.23.59Z"/>
      <path class="cls-1" d="M72.84,79.57c.77-.09,1.26.6,1.62,1.17.25.39.76.98.21,1.33-.68.13-2.11-2.23-1.83-2.5Z"/>
      <path class="cls-1" d="M26.02,80.92c-.18-.18.57-1.46.86-1.35.81.33-.27,1.59-.86,1.35Z"/>
    </g>
  </g>
</svg>