<?xml version="1.0" encoding="UTF-8"?>
<svg id="Layer_1" data-name="Layer 1" xmlns="http://www.w3.org/2000/svg" viewBox="0 0 72.64 72.65">
  <defs>
    <style>
      .cls-1 {
        fill: #fff;
      }

      .cls-2 {
        fill: #ed1c24;
        opacity: .99;
      }
    </style>
  </defs>
  <g id="iz4FLV">
    <g>
      <path class="cls-2" d="M40.5,1.78s.28.17.3.32l.91-.7-.42.84.77-.42-.21.42c.27.2,1.55-1.02,2.06-1.09.16-.02.27.18.39.2.09,0,.35-.3.61-.06-.15.43.28.57.29.64.1.4-.06,1.01,0,1.44l.98-.28-.14.42,1.05-.7.14.42.77-.56-.14.7c.06.08.87-.95,1.12-.63l-.42.63,1.4-.56-.42.56c.1.01,1.66-.13,1.26.28l-1.12.28.84.14-.7.56.5.13c.16-.51.59-.28.62.15l.62-.28.22.42c.92-.47.76-.19,1.2.41.22.31.49.02.19.85.36-.11.63-.85.98-.63l-.42.49.84-.28-.28.35c.31.25.58-.61.98-.28l-.42.49,1.26-.28-.42.56h.84s-.56.35-.56.35l.56.35h-.7s.56.42.56.42l-.7.07c.25.4.62.61.92.9.19.18.18.65.48.36l-.28-.91c.83.02.65-.64.8-1.24.03-.14-.02-.34.18-.3.02.75.67,1.32,1.4,1.4-.25.69-.34,1.4.42,1.75-.55.45-.8,1.06-.21,1.61l.35-.7c.41,0,.42.43.9.43s.7-.34,1.05-.57c.12.88,1.18,1.19,1.96,1.12.07.36-.05.22-.2.29-.63.32-1.41.42-1.06,1.39l.56-.14-.14.28h.84s-.7.56-.7.56c.44.06,1.36-.47,1.47.14l-.35.28h.98s-.56.42-.56.42l.98.49-.56.14.7.63-.98-.42.56.7-.63-.28.07.42-.42-.14c-.18.82.97.44.7,1.12l.43-.06.14-.63c1.01.19,1.06-.28,1.67-.84-.22.74-.18,1.79.56,2.17-.63.47-.67.88-.42,1.61-.57-.05-1.09.22-1.12.84l.77-.4c.52.67.99.62,1.75.4-.42.75.61,1.22,1.26,1.12-.42.71.35,1.26.7,1.82-.75-.25-1.6-.53-2.1.28l.7.14-.28.21.84.56-.28.14,1.12.84-.56.35.98.49-.42.14.7.49h-.7s.98.77.98.77l-.84-.21.56,1.26-.63-.56-.07.56-.7-.42c-.06.25.18.31.24.51.03.11-.11.31-.1.32.03.03.73.06.84.35l-.56-.07.56.63-.42.21.7.49-.42.07.42.84-.7-.35c.49,1.26,1.18.79,1.96.07-.09.83-.65,1.64.14,2.31-.66.47-1.31.85-.84,1.75-.57.1-1.17.2-1.23.89.16.59.68.76,1.23.79-.47.9.18,1.28.84,1.75-.78.68-.27,1.48-.14,2.31-.59-.54-1.77-1.25-1.75,0l.49-.28-.42.77.42.14-.56.42.42.14-.7.56.56.21c-.74.04-.71.32-.84.98l.49-.42.07.56.7-.42-.56,1.26.77-.42c.18.43-.62.76-.91,1.05l.7-.07-.7.28.56.21-1.12.63.56.35c-.15.26-1,.68-1.06.77-.1.12.1.37.02.56-.07.17-.56.36-.29.56l.91-.42-.56.7.56.07-.7.49.42.21-1.26.7c.22.22.82-.18.7.35h-.7s.28.28.28.28h-.56s.14.42.14.42h-.84s.28.42.28.42h-1.26s.07.28.07.28l.63-.14c-.21.37-.02.54.28.77l1.25.21c-.74.2-1.84.97-1.54,1.82-.75-.07-1.61-.34-1.68.7-.52-.61-1-.27-1.48-.34-.21-.03-.31-.45-.62-.36.23.62,1.32.49,1.23,1.3-.02.21-.24.3-.19.66s.36.8.64,1.05c-.98.41-.65,1.44-.7,2.31-.38-.25-.48-.76-.98-.91s-1.53.08-1.54.63l.84-.28-.98.7.56.14-.42.14.28.42-1.12.14.42.42h-.7s.28.42.28.42c-.34-.14-.45.26-.48.26-.19,0-.51-.22-.78-.12l.07.42-1.05-.28.42.42-.78.13c-.29.41.47.96.64,1.27-.69-.07-1.16.03-1.63.55-.23.04-.37-.38-.69-.42-.5-.06-.6.46-1.11,0l-.35.49.84.35-1.12.28c.32-.02.63.04.94.12.24.07.39-.1.32.3h-1.26s.7.42.7.42h-.84s.14.28.14.28l-.7-.14.28.42-1.26-.56.28.56-.7-.28c.41.65-.06.63-.14.81-.05.12.04.4,0,.45s-.32-.04-.45.01c-.15.06-.76.49-1.05.53-.17.03-.3-.21-.41-.21-.43-.02-.96.08-1.45-.04l.7.28-.42.42.84.28c.04.23-.34.15-.49.14-.32-.02-.59-.14-.9-.14l.56.7-1.4-.28.28.49c-.64-.08-1.18-.05-1.68-.63l-.07.56-.7-.42-.14.28-.7-.56-.14.42-.77-.56c-.06.65-.08,1.66-.7,2.03-.76.45-2.69-1.18-2.8-1.05-.2.88.42,1.08.84,1.68-.45-.09-.84-.21-1.32-.13-.32.05-.66.39-.71.39-.12,0-1.08-1.11-1.75-.26-.08-.75-.5-1.21-1.26-.98v-.7c-.52.1-.81.21-1.26-.14l-.15.84c-.62-.3-1.13.4-1.11.98-.55-.47-1.3-.4-1.61.28-.69-.5-1.35-.54-2.17-.28l.92-1.25-.15-.43c-.23-.05-1.8,1.54-2.72,1.05-.03-.02-.51-.55-.53-.59-.33-.66.13-.97.1-1.01-.02-.03-.41.02-.28-.43l-.77.56.07-.42h-.28s-.5.55-.5.55l-.27-.28-.56.42c-.48.14.08-.62-.14-.7l-.84.84-.07-.56-.84.56.14-.42-.56.14.14-.33-.37-.37-1.16.14.7-.42-.42-.42.7-.28c-.49.1-1.01.04-1.47.07-.12,0-.23.21-.39.18-.18-.03-1.21-.46-1.35-.61-.25-.27-.53-.85-.29-1.18l-.7.28.14-.56-.98.56.14-.42-.7.14.14-.28h-.84s.56-.42.56-.42h-1.12c-.11-.46.6-.26.84-.42l-.7-.42.98.14-.56-.28.28-.21-.14-.35c-.57.43-.7-.07-1.18,0-.32.04-.46.46-.69.42-.5-.58-1.04-.61-1.77-.55.41-.4.86-.73.84-1.4h-.84s.14-.28.14-.28l-.84.14.28-.42-1.4-.14.28-.42h-.7s.42-.14.42-.14c.19-.14-.96-.48-1.12-.42l.28-.42-.7-.14h.84s-.84-.63-.84-.63l.42-.21c-.8-.92-1.81-.09-2.38.7.14-.77.43-2.11-.56-2.38.33-.5.68-.8.56-1.46-.04-.2-.31-.44-.28-.49,0,0,.17.02.22-.05.09-.13.08-.33.2-.44.23-.2.98-.24,1.12-.77-.34-.01-.47.31-.8.39-.47.11-.9-.11-1.23.45h-.21c-.03-.98-.97-.77-1.68-.7.15-.99-.75-1.37-1.4-1.89,1.19.16,2.35-.92.7-1.19l.42-.28-.71-.07v-.35s-.55,0-.55,0l.14-.28-.56-.21.56-.07-.56-.28.14-.28-.7-.21.42-.21-.7-.56.56-.07-.7-.63.98.28c.07-.25-.19-.31-.23-.51-.03-.13.12-.33.04-.47-.03-.05-.9-.57-1.06-.7l.56-.21-1.12-.84.56-.21-.7-.28.7.07c-.29-.29-1.09-.62-.91-1.05l.77.42-.56-1.26.7.42.07-.56.49.42c.05-.47-.41-.89-.84-.98l.56-.14-.7-.63.42-.14-.7-.56.56.07-.42-.77c-.01-.23.53.31.42-.14-.22-.92-1.44.16-1.82.49-.08-.1,1-2.13,0-2.24v-.21c.66-.47,1.31-.85.84-1.75,1.59-.15,1.65-1.5,0-1.68.64-.82-.25-1.29-.84-1.75.8-.7.25-1.62,0-2.45.66.7,1.89,1.53,1.89,0l-.49.42.42-.84-.56-.14.84-.49-.56.07v-.28s.84-.56.84-.56l-.63.14-.07-.28c.46-.01.78-.39.84-.84l-.7.42.07-.7-.77.56.7-1.26c-1.65.64-.52-.21.14-.63l-.84.21.84-.63-.35-.21,1.05-.42-.7-.28,1.12-.91-.42-.21,1.12-.42-.42-.42.42-.21c-.57-.63-1.15-.24-1.82-.07.38-.57,1.06-1.06.7-1.82.73.09,1.49-.32,1.4-1.12.63.28,1.2.27,1.48-.43l.76.29c0-.48-.57-.7-.98-.7.17-.59.35-1.27-.42-1.4v-.2c.85-.63.79-1.37.56-2.31.3.18.31.73.7.91.34.16.65.09.98-.07-.03.5.03,1.21.7,1.12l-.28-.49c.17-.25.31-.2.55-.08l.29-.84-.42.28.28-.7-.77.42.35-.56-.7.14.7-.7-.7.07.98-.49-.56-.42h.98s-.42-.28-.42-.28c.3-.56,1.05-.16,1.54-.14-.05-.38-.84-.06-.7-.56.69.18.71-.47,1.4-.28.03-.9-.73-1.05-1.4-1.33.73-.42,1.82-.22,1.96-1.33.36.23.57.58,1.05.57s.49-.43.9-.43c.05.3.18.74.56.7.13-.71.22-1.12-.42-1.61.83-.47.73-1.09.42-1.89.79.16,1.3-.57,1.4-1.26l.4,1.34.57.2c.12.12-.54,1.01-.14,1.12.14-.77.89-.83,1.26-1.47l-.84-.07.7-.35-.7-.07.56-.28-.56-.42.83-.02v-.4s.85.14.85.14l-.42-.56,1.26.14.07-.42c.28.25.47.64.91.56-.19-.46.19-1.48.77-1.41.1.01-.02.43.35.29v-.56c.67-.25.64.68.98.32l.07-.32,1.05.15-.7-.49.7-.07c-.12-.34-.65-.31-.98-.42-.41-.4,1.16-.27,1.26-.28l-.42-.56,1.4.56-.42-.63c.25-.32,1.05.71,1.12.63l.07-.7.56.56c-.22-.9.59-.11.84.14l.42-.28.49.42c-.15-.33.27-.46.28-.51.02-.18-.2-.73-.1-.95.08-.18.29-.18.34-.26.09-.14.03-.63.25-.66.17-.03.31.24.42.23s.22-.23.39-.21c.15.02.48.34.78.28l.02.4.42-.08c.21.41.35.58.84.5l-.42-.56.96.53.1-.26c.44.33.83-.15.76-.6-.08-.49-.43-.83-.7-1.21.89.28,1.71.77,2.52,0,.09.73.78,1.37,1.54.98l.63,1.54c.39,0,.92-1.17.77-1.54.84.31,1.5-.12,1.68-.98.78.75,1.69.3,2.52-.14.18.18-.96.84-.65,1.78ZM36.25,5.6c-.56.04-1.19-.07-1.74.01-.66.1-.98.58-1.81.27l-1.21.55c1.23-.28,2.63-.18,3.84-.43.22-.04.81-.21.92-.41ZM39.05,6.16c-.47-.75-1.61-.52-2.38-.56l1.64.52.74.03ZM31.21,6.02c-10.51,1.64-19.71,9.22-23.37,19.17,1.06-.79,1.42-2.3,2.07-3.45,4.56-7.98,11.87-13.63,21.07-15.19l.23-.53ZM39.19,6.58c-1.28.09-2.66-1.26-3.85-.14-1.61,1.51,1.12,3,1.34,1.47.06-.4-.45-.08-.64-.34-.6-.83,1.09-1.49,1.45-.62-.24,1.58-.28,3.29-.55,4.86-.19,1.11-.44,3.01-1.94,2.19-.04.8.8.89,1.4.63.68-.29.64-.87,1.68-.49-.21-.31-.37-.35-.43-.76-.2-1.47.41-2.95.29-4.42.26.04.23.29.29.47.38,1.02.67,2.24.96,3.31l.4-.23,1.84-3.13c-.38,1.25-.19,3.03-.62,4.21-.13.35-.36.27-.49.55l2.24.42c.04-.28-.22-.36-.28-.63-.31-1.64.58-4.25.59-5.98l.52-.94-1.96-.14s.14.23.13.36c0,.41-1.19,2.48-1.5,2.96-.09.14.01.25-.31.18.01-1.28-1.19-2.61-.56-3.78ZM57.75,14.33c-4.43-4.32-10.17-7.35-16.32-8.31v.56c.07.08,1.83.1,2.14.17.48.13,1.46.54,2.06.74,19.37,6.44,27.08,29.9,15.01,46.49l.25.46c2.13-3.09,3.83-6.27,4.86-9.91,2.98-10.55-.17-22.57-7.99-30.21ZM29.82,8.12l-2.1.42c-.1.37.23.25.4.5.22.32,1.21,4.77,1.14,5.16-.04.23-.21.31-.28.49l3.92-.7-.28-1.82c-.45-.1-.33.53-.5.83-.28.51-1.06.65-1.6.71-.11-1.43-.83-3.03-.97-4.42-.05-.49-.07-.79.27-1.17ZM26.32,9.1l-1.54.7c.37.03.61.22.82.51.17.24,1.63,3.54,1.68,3.79.16.98-1.15,1.68-1.85.58-.33-.52-1.63-3.47-1.63-3.97,0-.19.09-.33.15-.49-.2-.16-1.85.66-2.1.91.21.17.5.05.71.31.67.82,1.04,2.83,1.75,3.81s1.76,1.17,2.77.54c2.31-1.43-.52-4.19-.86-5.96-.06-.3-.02-.47.11-.73ZM46.02,9.13c-2.27.33-3.89,4.72-1.72,6.13,2.62,1.7,5.62-3.36,3.65-5.47-.43-.46-1.31-.75-1.93-.66ZM53.47,12.88c-.68.05-.96-.88-1.53-1.06-1.23-.38-2.32.23-2.39,1.55-.05.96.68,1.84.7,2.67.03,1.41-1.84,1.4-1.82-.16,0-.4.21-.78.15-1.19l-1.4,1.61c.97.78,2,2.25,3.43,1.48.94-.5,1.03-1.61.87-2.56s-1.75-2.93.68-2.5c.38.5.31,1.05.19,1.62l.28.07.84-1.54ZM19.56,12.77c-3.66.59-.88,7.22,2.63,5.99,2.91-1.02.47-6.49-2.63-5.99ZM56.41,15.53l-1.68-1.54c.02.3.02.5-.13.78-.29.51-1.69,1.58-2.18,2.16-.83.98-1.54,1.79-.69,3.07.79,1.19,1.81,1.19,2.86.36.78-.62,2.03-2.34,2.72-2.74.32-.18.57-.15.92-.13.17-.15-1.11-1.43-1.26-1.26,0,.19.02.41-.03.6-.12.41-2.25,2.55-2.7,2.9-.81.62-2.09.54-1.86-.59.11-.54,2.91-3.42,3.44-3.57.19-.06.41-.02.6-.03ZM47.17,18.62c.02-.24.02-.43-.13-.64s-2.53-1.36-2.95-1.53c-2.34-.94-5.21-1.61-7.66-1.23-.84.13-1.07-.18-1.62-.21-5.99-.33-13.41,5.09-16.45,9.99-.68,1.1-1.58,2.51-1.43,3.82l1.51-3.03c5.81-9.98,18.86-13.41,28.72-7.18ZM17.36,19.03c.51-2.12-1.43-3.08-3.01-1.54-.27.26-1.65,1.87-1.46,2.1.55-.35.89.09,1.32.42.59.45,2.75,2.29,3.09,2.79.19.27.15.81.41.71l1.33-1.68c-.98.33-1.79-.92-2.52-1.47.92-.68,2.15.8,3.14.63.45-.08,1.07-.93,1.06-1.4-1.14.57-2.16-.63-3.36-.56ZM47.03,19.18c.17.46.79.25,1.11.06,1.6-.96-.89-2.55-.56-.21l-.55.16ZM59.21,18.48l-.27.09c0,.16,0,.32-.08.46-.15.28-4.13,2.94-4.53,3.01-.15.03-.29-.06-.44-.06l2.03,3.35,1.61-1.11c-1.03.14-1.99-.16-2.23-1.25,1.05-.32,3.67-2.76,4.54-2.79.15,0,.32.15.5.12l-1.12-1.82ZM38.35,21.55c.14-.15-.54-.9-.71-1.04-.42-.35-2.46-1.52-2.95-1.67-.81-.24-1.58.02-2.22.54.48.06,1.04-.42,1.5-.46s2.29,1.04,2.77,1.37c.57.39.99.93,1.6,1.26ZM55.99,28.69c-1.3-3.76-3.93-7.16-7.14-9.52l-.13.54c3.01,2.2,5.51,5.4,6.72,8.96l.54.02ZM16.52,25.75l.98-1.75c-.28-.42-.36.15-.73.05-.34-.09-2.82-1.69-3.31-2.02-.58-.38-1.3-.67-1.34-1.46l-1.19,1.96c.21,0,.38-.14.6-.11.25.03,4.04,2.37,4.35,2.65.2.18.33.31.36.59l.29.09ZM36.23,21.39c-.55-.29-.87-.08-1.33-.04-.6.05-.78.07-1.37.22-1.05.28-1.76.57-2.46,1.46l.42.21-.28.42h.56s-.42.77-.42.77l.27.13-.13.5c.48-.45,1.07-.23,1.47-.7l.14.28c.73-.57,1.88-.61,2.8-.57.48.02,2.21.27,2.55.49.05.03.82.77.85.82.1.16-.26.87-.04,1.08.21-.25.56-.42.63-.77.02-.12.03-2.24,0-2.36-.03-.1-.21-.06-.26-.18-.02-.05.1-.23.04-.33-.36-.62-1.13-1.04-1.8-1.26-.57-.19-1.15-.06-1.55-.41l-.09.25ZM62.71,24.77l-.91-1.96c-.83,1.52-4.72,1.74-5.08,3.46-.11.56-.03,1.28.27,1.77,1.27,2.08,4.27-.61,5.82-.86.4-.07.64.1,1.01.11l-.56-1.45c-.17-.33-.48.36-.79.58-.46.33-3.74,1.74-4.17,1.7-.9-.08-1.05-1.29-.27-1.8.46-.3,3.6-1.68,4.04-1.7.22,0,.41.15.63.14ZM11.9,26.03c.08-.61-.17-1.04-.63-1.4-2.63-2.03-5.53,3.91-3.44,5.53.94.73,1.94.02,1.54-1.06-1.93.99-1.9-1.48-1.22-2.69,1.07-1.91,3.71-.81,3.04,1.29-.07.08-1.73-.69-1.92-.81-.34-.2-.22-.53-.59-.45.15.73-.23,1.18-.42,1.82.27-.15.41-.14.7-.09.36.07,2.7,1.08,2.77,1.3.11.34-.03.78.13,1.27.34,1.06,1.64,1.66,2.7,1.37.95-.26.64-.82.91-1.33.14-.28.61-.3.84-.84.92-2.14-.41-5.12-3.02-4.56-.55.12-.86.55-1.39.64ZM38.49,26.73c.07.02.21-.04.32,0,.06.02.28.69.37.08-.62-.91-.01-1.35-1.22-2-.43-.23-1.99-.46-2.5-.44-.76.02-1.8.14-1.73,1.1l.42-.21.28.21-.84.56c.94-.3,1.62-.04,2.52.14l-.24.35c.76.7-.08.82-.04,1.19-.47-.09-.94-.23-1.45-.15-.86,1.15.35,1.33,1.3,1.12l-.14-.56h.42c.05-.17-.13-.33-.14-.42.16.03.84.15.84.21l-.84.91c.66.12.45.56,1.26.28l.14.28c.36-.72-.56-1.13-.56-1.2-.02-.29.52-1.87.77-1.87.27.29.68.3,1.05.42-.34-.04-.66.06-.98.14-.02.24.31.12.5.27.1.07.37.55.34.57-.82-.26-1.15.74-.82,1.38l1.1.02c0-.43.15-.94-.42-.98v-.14c.42.04.31-.73.57-1.05-.08-.02-.27-.21-.29-.22ZM31.64,26.18c.42.19,1.25-.99,1.12-1.12-.77.16-1.12.89-1.96.7l.7.7-.56-.14c.47.82-.03,1.65-.56,2.31l.28.14-.84.7.28.14-.52.74-.31,1.99.84-1.4v1.4s.56-.42.56-.42v.98s-.14-.56-.14-.56c-.2-.04-.19.23-.22.37-.1.48-.01.98.08,1.45l.28-.56c-.21.9.69.82,1.05,1.54l.21-.28c0,.19-.03.39.07.56.04.07,1.19,1.09,1.26,1.13.16.1.34-.03.35-.01.04.07-.12.27-.06.43.08.22.94.62,1.18.83l.14-.56.28.84.14-.98.14.84.14-.42.14.42.49-.28.14.28c.52-.43,1.27-.45,1.33-1.26l.21.56c.46-.37.71-.78.63-1.4l.14.42c.54-.29.22-1.05.14-1.54l.42.42c.18-.44.37-.65.25-1.16-.07-.33-.41-.47-.39-.8,1.27.58.42-1.74.52-2.41l-.67-1.65-.56.91.07.21c-.5.2-.9-.65-1.11-.67-.14,0-.47.32-.97.24-.38-.06-.99-.64-1.55-.64-.51,0-1.25.69-1.89.5l.28-.28-.84-.14c.05,1.06,1.03,1.19,1.9,1.25.45.03,1.7-.24,1.95-.23.06,0,.41.36.63.46.41.19.96.08,1.4.35-.22.37-.92,0-1.27.06-.53.09-.62.46-1.46.37-.68-.07-1.08-.69-1.14-.71-.26-.05-.54.12-.76.07-.06-.01-.96-.55-1.03-.62-.67-.62-.24-.98-.35-1.58-.03-.14-.58-.34-.57-.58l.43-1.75-.42-.14ZM35.55,26.73c-.04-1.17-1.49-.5-2.24-.56-.03.21.26.17.42.2.61.12,1.32-.09,1.82.36ZM35.69,27.3l-.82-.4-.11.26-1.59-.15.66.53,1.86-.25ZM33.84,28.03s-.75-.65-.8-.67c-.24-.13-.27-.02-.42.14.49.87.59,1.62,1.82,1.47-.01-.25-.35-.16-.49-.42-.08-.15-.03-.38-.11-.52ZM54.59,27.43l-8.68.21,6.24.08,2.44-.28ZM27.12,27.61c-1.36-.6-2.27,1.39-1.57,2.47.34.52,1.35.9,1.94.68.19-.07.18-.3.25-.36.05-.04.28.06.43-.03.72-.42.52-2.41-.25-2.53-.17-.03-.37.12-.59.04-.15-.05-.17-.27-.21-.29ZM64.11,28.41c-.46-.12-.22.4-.52.56s-4.88,1.29-5.14,1.26-.35-.33-.63-.28c-.07.07.39,1.76.49,1.96.18.4.26-.17.41-.29.41-.3,3.68-1.08,4.39-1.21s.9-.16,1.57.1l-.56-2.1ZM6.72,28.55c-1.06,4.54-1.26,9.27-.35,13.86s2.8,8.43,5.46,12.03c.2-.16.22-.17.15-.43-.15-.54-1.67-2.54-2.07-3.26-3.23-5.85-4.09-11.6-3.47-18.22.11-1.23.47-2.21.42-3.5,0-.17.11-.52-.14-.49ZM56.55,28.97h-1.82v2.87c0,1.18-1.34,2.97-1.39,4.08-.03.69.29,1.27.55,1.87-.99-.71-.74-2.02-.42-3.01.22-.7.99-1.96.99-2.65v-2.31l-.16,1.52-.96.16c-.01.44.49.61.77.84v.42c-.27.21-.36.73-.49.91-.67.94-.63.65-1.2,1.88-.1.21-.57.56-.69.85l.07-1.26c-.52,0-.5.74-.91.98l-.14-.42-.35.56c-.25-.52.24-.76.36-1.25.32-1.34-.28-1.21-.67-2.01-.12-.24,0-.65-.24-.66-.51,1.11,1.36,1.96-.42,2.66l-.28-.84-.28,2.52c-.43.1-.22-.28-.35-.55s-.54-.34-.23-.8c.08-.39-.2-.08-.25.04-.18.46-.01.65,0,1.1-.84.09-.46,1.19-.57,1.79-.02.12-.52.36-.54.47-.01.07.09,1.13.13,1.17.64.05-.03-1.13.49-1.4.36.3.83.39,1.22.57.18.08.02.44.6.13l-.07.28c.27.2,1.93-1.44,2.22-.61s-.93.51-1.24,1.03c.48-.23.56.04.98.14l-.14-.42c.61-.07,1.13.03,1.61.42.28-.02.2-1.16.56-.97.46.24,0,1.93,1.02,1.44.13-.06.21-.05.18-.25.13-.45-.47-.38-.55-.72-.07-.27.28-1.17.12-1.58.49.08.15,1.26.35,1.26l.07-.7c.38-.05.35,0,.49.28.23-.35.42-.22.75-.16l.15-.26c-.03.34.11.3.42.28v-.56c.45.15.61.18.98-.14l.09,1.48c-1.25,1.17-.48.93.32,1.4.42.25.54.82,1.27.62l-.56.14.56.42c-.83-.1-.44.1-.59.6-.06.2-.4.56-.11.74.19.12,1.93-.11,2.38.2l-.84-.28.7-.28-1.82-.56c.04-.39.68,0,.77,0h2.03c-.18-.41-.8-.31-1.15-.43-.12-.04-.2-.4-.53-.27-.09-.44.42-.13.28-.7l-.98-.28,2.85.55,3.17-1.25-5.82-1.11-1.87.4c-.05-.22.2-.06.27-.24.12-.3.12-.82.15-1.16.56.29.44-.4.49-.57.27-.83.48-.87.29-1.95-.06-.36-.5-.86-.5-.92-.01-.35.35-.64-.43-.69l-.83-3.14c-.56,2.45,2.6,5.1.56,7.14-.03-.38.35-.56.41-.92.37-2.02-1.25-3.55-1.25-5.45v-2.45ZM50.25,30.79c.01-.09-.19-.28-.21-.28h-2.17v.28h2.38ZM70.39,32.45c-.5-.03-.73,1.09-.19.72.6-.41.5-1.31-.07-1.68l.26.96ZM23.52,31.91l-.28-.21c-.9.38-2.43,4.42-2.8,5.46-.29.83-.63,1.71-.7,2.59l1.09-3.04c.83-1.29,1.15-3.17,2.06-4.37.16-.21.33-.41.62-.43ZM2.63,32.64c-.11-.18-.5-.01-.32-.73-.7.52-.23,1.04.35,1.4-.02-.2.07-.51-.03-.67ZM16.66,43.53c-.6-1.63-1.08-3.37-1.26-5.11s.04-3.26.14-5.03c.02-.37.03-.84-.08-1.19-.19.15-.28.25-.34.5-.13.52-.25,1.8-.29,2.37-.16,2.82.34,5.95,1.4,8.55l.42-.08ZM42.13,36.95c-.1-1.49-.75-2.92-1.68-4.06.18,1.14.97,2.15,1.33,3.21.12.34-.12.95.34.84ZM28.28,33.73c-.16-.04-.5-.27-.42.07.13.47.81.66.95.81.06.07,0,.27.06.34.13.15.72.24.95.32l-.7.42h.84s-.42.28-.42.28l.84.14-.56.35,1.4.49c-.07.37-.63-.06-.84,0-.04.03.46.71.55.78.51.44.56.34.94.89.3.44.93.62,1.45.7l-.56.28h.98s-.56.28-.56.28l.98.28s-.37-.85-.41-.89c-.19-.21-.12.09-.39-.36-.25-.42-.69-.98-1.02-1.34-.77-.86-1.51-1.44-2.21-2.06-.39-.35-.05-.84-.88-.52.05-.66-.68-.81-.98-1.26,1.02.26,1.27.93,1.86,1.16.2.08.46-.07.51-.03.05.04.05.33.15.46.93,1.14,2.1,2.05,2.94,3.11.2.25.45.57.7.77-.02-.27-.11-.58-.23-.82-.7-1.51-3.01-3.48-4.34-4.34-.27-.18-1.5-.74-1.73-.58.02.09.09.2.14.28ZM43.79,34.46l-.39-.16v1.54s.42,0,.42,0l-.02-1.38ZM61.86,35c-.34-.27-.28.63-.64.69l-.41-.27c-.35.19-.03.4-.08.6l-.21.22-.48-.13.13.75-.55.3.41.75-.55.3c.43-.03.59.12.56.56l.14-.7.28.56-.14-1.4.28.28c-.18-.86.28-.83.57-1.18.11-.13-.01-.33,0-.34.08-.06.37-.03.51-.12.24-.16.29-.45.59-.46.05-.25-.22-.08-.31-.14-.17-.12-.11-.26-.12-.27ZM11.6,35.66l-.82-.46-.28.21c.34.06.84.37,1.08.6.03.03.43.6.45.63.25.54.18,1.3.71,1.57l-.15-.75c.19-.15.37,0,.29-.36l-.56-.22.28-.56-.84-.42.28-.21c.07-.1-.44-.55-.44-.03ZM40.03,39.05v-1.89s-.28-1.47-.28-1.47c-.18.84-.09,1.85.01,2.71.02.15.06.66.26.65ZM44.79,38.77c.28-.28-1.25-1.18-1.4-1.33-.42-.44-.74-1.22-1.26-1.61-.04.64.43,1.46,1.12,1.54l-.98.42,1.54.28-.42.28,1.4.42ZM46.31,36.23l-1.1-.26v.56s1.03-.02,1.03-.02l.23-.54-.16.26ZM37.51,42.41l.08-1.4-.36-3.22c-.49.05-.41.46-.6.66-.84.92-2.06-.37-2.2-.24-.03.48.67.52.7.56.01.02-.15.28-.13.47.17,1.75.58,1.32,1.59,2.19.37.31.52.73.91.98ZM45.63,39.75c-.59-.93-1.49-1.17-2.52-.84l1.23.23,1.29.6ZM11.06,39.34h-.27s-.21.55-.21.55l-.49-.42-.07.57h-.48s-.29.69-.29.69c.1.08,1.32-.74,1.64-.81.44-.09,1-.05,1.44.03.48.09,1.31.65,1.68.98.44.38.39,1.01.83,1.34-.05-.19.2-.58.13-.68-.04-.05-.5-.15-.41-.3l.28-.28-.42.14v-.7s-.5,0-.5,0l-.07-.71-.56.28v-.42s-.77.14-.77.14l.07-.42-.77.29-.14-.29-.28.29h-.28s-.07-.28-.07-.28ZM46.29,40.63c-.31-.42-1.63-1.04-2.16-1.13-.98-.16-2.77.11-2.98,1.23l-.28-.14-.42,1.61.27.21.14-.84.43.09c.14-.11.09-.38.16-.48s2.02-.46,2.36-.39c1.34.27,2.25,1.24,2.39,2.6h.41c.16-.85.21-2.02-.32-2.75ZM50.11,40.45l-.35-.56c-.27.22-.62.32-.92.49-.18.11-.35-.02-.27.35l1.54-.28ZM31.91,41.29c.29-.26-1.07-1.07-1.34-1.11-.38-.06-.67.11-.95.09-.75-.05-.9-.44-1.86.1-.04.02-.67.51-.7.55-.27.29-.4,1.21-.8,1.51l-.16,1.81.36.14.14-.28v.56s.21-.26.21-.26c.39.18.88.19,1.26.31.07.02.07.17.1.18.37.13.8-.09,1.09.47.2-.31-.08-.58-.07-.76.02-.93.37-1.79.88-2.56.57-.86.81-1.19,1.85-.74ZM27.3,40.31c-.67-.27-1.65,0-2.1.56l2.1-.56ZM70.27,41.29c.72-.3.33-1.31-.42-1.12l.42,1.12ZM37.37,43.25c.1-1.52-2.43-2.77-3.64-2.45-.55.14-1.64.75-2.09,1.12.44.23,2.28-1.14,2.38-1.05.07.43-1.28.97-1.26,1.05.12.39.38-.04.55,0,.09.02.7.37.7.42l-.63.2c-.72,1.04.76.88.92,1.68l.41-.13-.14.28c.43-.07.85.07,1.12-.35,0-.12-1.26-.73-1.47-.91-.18-.15-.28-.33,0-.42s.22.27.43.41c.43.29,1.08.21,1.46-.13l-.13.83.83.22c-.14-.69-.44-1.11-1.02-1.5-.47-.31-1.21-.35-1.36-.95.77.09,1.29.66,2.1.28.1.45-.14.41-.42.63.2.3.28.12.56.07l.13.63.57.07ZM54.24,42.13c.68.08,1.48-.06,2.17,0v-.14h-1.96l1.26-.14-.12-.26c.25-.1.58-.24.54-.58-1.12.19-1.62-.6-2.65.08-.21.14-.37.39-.56.55,0,.15,1.14.47,1.33.49ZM45.49,42.83c.13.4-.14.69-.21.98-.21.88.69.65.64-.35-.03-.57-.81-1.5-1.31-1.78-.17-.1-1.6-.65-1.69-.64-1,.09-.72,2.03-1.07,2.76l.69.29.91-2.24c.35.51-.94,2.33-.28,2.52s1.23-1.62,1.33-2.1c.25-.03.13.3.1.45-.1.6-.39,1.12-.66,1.64l.78-.13.76-1.41ZM52.77,41.29c-1.95.25-3.93-.17-5.88-.07-.1.33.31.19.49.21,1.64.13,2.78.37,4.46.12.22-.03.84-.06.93-.26ZM52.77,41.85c-1.8.11-3.6.35-5.39.56-.21.02-.43.11-.21.28l3.92-.42-.56.28,2.38.42-.14-1.12ZM40.17,43.81l.99-.34.69-1.48-1.68,1.82ZM54.45,43.95c-.55-.02-.95-.64-1.37-.8-.83-.32-3.19-.59-3.96-.11-.15.09.05.29-.06.36-.22.14-1.47.35-1.46.48l4,1.04c.28.01,2.37-.52,2.68-.66.19-.09.22-.01.18-.31ZM18.62,44.37h-3.5v-.14h3.5l-.37-.71-3.97.78,5.83,1.99,4.67-1.22c-.04-.26-.29-.24-.47-.3-1.79-.61-3.98-.94-5.83-1.38.23,1.31.32.82,1.19.98.3.06.39.33.59.39.31.1.89-.13,1.02.17l-2.57.12-.23-.2.13-.47ZM63.69,43.95c-.78-.13-1.55.32-2.3.28-1.12-.05-2.54-.78-3.72-.7l3.44,1.11,2.58-.69ZM34.15,44.51l-.56-.78c-1.18-.06-.18.99.56.78ZM39.87,43.69l-2.08.26.84,1.26c-.49.13-1.27-1.08-1.47-1.08-.23.3-.67.17-.88.28-.07.04-.56.67-.87.73.29.14.67-.31.84.21-1.32.37-2.28.55-3.63.34-.15-.02-.46-.19-.42.08,1.03.3,2.06.59,3.07.92.27.09.58.04.85.13,1.11.38,1.97,1.38,3.42,1.35.88-.02,1.19-.52,2.2-.11.83.33.99.88,1.38,1.56.09.16.33.19.37.25.06.08.11,1.76.12,2.03.03,1.66-.43,3.51.69,4.94.61-.67.03-2.15.78-2.58.82-.47,3.18-.39,4.19-.78l-.42-.14.28-.14v-.42s.84,0,.84,0l.07.42,2.29-.58c-.13-1.77.08-4.67-1.4-5.92-1.05-.89-2.47-.58-3.8-.82-.81-.15-1.76-.64-2.48-.74-.8-.1-1.27.05-2.21-.15-.59-.12-.97.13-1.02-.89-.35.2-.59.34-1.01.25-.61-.13-.44-.56-.54-.65ZM60.89,45.21l-1.12-.28.28.21-.25.09-.04.39,1.12.14-.42-.35.42-.21ZM47.56,45.12c-.42-.24-.35.2-.48.23-.22.05-.73-.14-.75.14,2.3.45,5.13-.2,5.74,2.8l8.12-1.26c-.04-.26-.72-.15-.91-.14-1.84.15-3.77.83-5.67.7l1.26-.42h-1.4s.14-.28.14-.28c-1.19-.17-.79-1.06-.14-1.68l-.84.14.14.28c-.41.02-.73.21-1.15.25-1.24.11-2.1-.55-3.27-.67-.55-.06-.35.16-.79-.08ZM24.92,45.49l-.84-.14.28.28c-.65-.28-.52.1-.66.14-1.1.29-2.31.36-3.38.94-.18.1-.38-.07-.3.32l5.18-.91.14-.21-3.36.56,2.73-.7.21-.28ZM24.92,46.47c-1.34.15-2.67.49-4.01.68-.15.02-1.58-.08-1.17.3.25.01.45.1.71.08,1.1-.1,2.8-.56,3.98-.78.2-.04.43,0,.49-.28ZM22.82,47.31c-.84-.11-2.12.63-2.86.55-.38-.04-1.63-.62-2.18-.76-.37-.1-.73-.23-1.12-.21l1.29.6,1.5.26.08.41,3.29-.84ZM21.84,48.29h2.1l-1.68.28,3.29,1.27c1.05-.51,2.69-.54,3.68-.89.18-.07.59-1.01,1.02-.94.05-.24-.06-.29-.24-.39-.55-.31-1.78-.42-2.41-.73-.26.69-.46.81-.15,1.54-.96.44-1.68-.32-2.66-.14l2.22-.44c-.02-.29.78-.99.23-.96l-5.39,1.4ZM32.52,48.1c-.08-.05-.11-.22-.18-.3l-.56.07.56.42-.84.28h1.39c.17.51.28,1.13.01,1.61l.28.07c-.08-.53.2-1.63-.2-1.97-.11-.09-.31-.09-.45-.18ZM57.95,47.73c-1.61.23-3.55.31-5.11.7-.19.05-.44,0-.49.28l5.6-.98ZM23.24,49.13c-.61,0-.93-.59-1.54-.28-.06.07.14.21.23.26.22.14,3.17,1.26,3.35,1.27.72.03,2.08-.73,2.86-.83.03-.26-.28-.11-.43-.08-.37.08-.78.16-1.14.26-.3.08-1.1.48-1.16.48-.08,0-.52-.37-.77-.44-.47-.15-1.05-.23-1.54-.35l.14-.28ZM40.31,49.55c-.47-.92-1.78-.43-2.52-.07.33.09.87.12,1.2.08.28-.04.09-.36.69-.3.28.03.18.43.63.29ZM29.54,49.27l-3.78,1.26c1.31.63,2.87-.32,3.78-1.26ZM41.85,49.69c-1.89.06-3.74.57-5.63.74l-3.33.66,7.32-1,1.63-.4ZM42.27,50.11l-4.2.7c1.26-.11,2.6-.2,3.84-.42.25-.04.42.15.35-.27ZM48.85,56.27c1.91-.53,3.8-1.15,5.73-1.62.7-.47.47-2.04-.28-2.38-.45-.2-2.54.79-3.21.98-1.69.49-3.46.71-5.18,1.05.66.89,1.04,1.98.28,2.94.93-.22,1.84-.6,2.66-.98-.16.04-.45,0-.7.06-.52.14-1.03.43-1.53.64l.21-.85.42-.11.21.26.14-.56.2.28.71-.35,1.88-.2c-.08.21-.53.35-.74.45-.27.13-.58.29-.8.39ZM12.95,52.35c-.52-.01.18.93.24,1.02.21.33,2.11,2.47,2.28,2.47.09,0,.25-.2.14-.42-.15-.28-.98-.92-1.26-1.26-.21-.26-1.28-1.82-1.4-1.82ZM56.97,55.71c.33.3,2.54-2.34,2.69-2.7.09-.22.14-.42.11-.66l-2.8,3.36ZM14.74,56.72c.12-.13.49-.22.6-.45.19-.38-.66-.77-.93-1.04-.63-.66-1.16-1.53-1.81-2.18l-.55,3.44-3.51.27c.01.4,3.15,4.25,3.43,4.26.06,0,.31-.24.07-.35-1.04-1.19-2.27-2.42-2.94-3.85,1.13,1.17,1.93,2.7,3.29,3.64l-.77-1.26,1.19,1.12.07-.28.42.28c.19-.21-1.08-1.24-.28-1.05l-.28-.63.42.28c-.3-.68.03-.25.29-.51.09-.09.67-.9.56-1.02h.41s-.14-.43-.14-.43l.35.12c.24-.08.07-.32.11-.37ZM60.47,56.55l-.56-3.5-2.64,3.03c-.08.47,1.55,1.42,1.53,2.01l.98-.56-.67.77.26.49.4-.13-.14.56.56-.42-.7,1.26.42-.21-.42.63,1.05-.84c.15.45-.73.8-.91,1.26.38-.13.92-.61,1.21-.89.96-.93,1.76-2.18,2.57-3.24l-2.94-.21ZM21.56,56.96s-.35-.52-.43-.61c-.36-.37-1.96-1.72-2.37-1.97-1.56-.92-1.92.74-2.8,1.81-.64.78-1.36,1.5-1.96,2.31.19,0,.41-.02.6.03.96.3,2.67,2.01,3.62,2.68,10.95,7.83,25.36,7.79,36.28-.08,1.3-.94,2.57-2.51,4.15-2.63-.49-.66-1.16-1.26-1.68-1.89-.48-.58-1.01-1.55-1.48-2.02-.11-.11-.12-.2-.34-.15.13.71-.16.49-.47.72-.23.17-.38.44-.65.4l.28-.42c-.21-.16-2.05,1.49-2.39,1.74-7.33,5.23-16.09,6.64-24.66,3.55-3.74-1.35-6.71-3.58-9.76-6.05.94-.42,3.54,3,4.06,2.59ZM51.37,56.69c-.2-.17-1.95,1.1-2.28,1.28-7.41,4.07-15.95,4.49-23.66.94-.94-.43-2.04-1.24-2.9-1.58-.12-.05-.54-.18-.55,0,7.44,5.38,18,5.85,26.13,1.63.88-.46,2.18-1.2,2.95-1.81.17-.13.38-.16.32-.45ZM64.11,56.69c-.7-.14-.5.17-.78.55-.95,1.31-1.99,2.53-3,3.79.27.06.38-.06.57-.2.26-.19,1.2-1.29,1.46-1.61.65-.79,1.19-1.67,1.75-2.52ZM15.26,59.48c-.57-1.29-2.53-.81-1.54.7.41-.09-.14-.59-.15-.77.21-.95,1.46.25,1.68.07ZM17.98,61.53c-.47-.43-1.51-1.56-2.02-1.83-.14-.07-.26-.09-.42-.07-.27.21,2.39,2.19,2.62,2.35,10.15,7.14,23.73,7.78,34.38,1.26.54-.33,1.34-.76,1.64-1.3-.1-.2-.34.03-.47.09-.88.44-1.65,1.08-2.52,1.54-9.49,5.11-20.44,4.92-29.91-.09-.76-.4-2.83-1.52-3.3-1.95Z"/>
      <path class="cls-1" d="M21.56,56.96c-.52.41-3.12-3.01-4.06-2.59,3.05,2.47,6.02,4.7,9.76,6.05,8.56,3.09,17.33,1.68,24.66-3.55.35-.25,2.18-1.9,2.39-1.74l-.28.42c.27.04.42-.23.65-.4.31-.23.6,0,.47-.72.22-.05.22.04.34.15.47.47,1.01,1.43,1.48,2.02.51.63,1.19,1.23,1.68,1.89-1.58.13-2.85,1.7-4.15,2.63-10.92,7.87-25.33,7.91-36.28.08-.94-.68-2.65-2.38-3.62-2.68-.19-.06-.4-.03-.6-.03.6-.81,1.32-1.53,1.96-2.31.87-1.07,1.24-2.73,2.8-1.81.41.24,2.01,1.6,2.37,1.97.09.09.47.59.43.61ZM18.48,58.93c1.6.9,2.45-.88.9-1.82l-1.88,2.31.55.49.42-.98ZM53.14,57.28c-1.62.17.19,3.45,1.45,2.69.87-.78-.59-2.79-1.45-2.69ZM21.09,58.54c-1.12.1-2.27,2.66-.83,2.88,1.33.2,2.58-3.04.83-2.88ZM52.37,59.6c-.11-.14-.08-1.67-1.22-.97-1.07.66.24,1.29.33,1.44.24.42-.28,1.33.94,1.24.75-.05,1.08-1,.5-1.5-.18-.16-.52-.18-.55-.22ZM21.98,62l1.26-2.17-.49-.34-1.61,2.51,1.33.69.35-.48-.84-.21ZM50.53,60.6s.16-.28.08-.56c-.32-1.12-1.95-.34-1.42.71.1.2.46.22.5.37.06.27-.07.55.07.88.41.96,2.24.19,1.45-1.03-.2-.32-.66-.34-.68-.37ZM25.2,60.74c-.03.41-.76,2.33-1.19,2.24-.68-.14.62-2.13.76-2.45l-.69-.2c-.05.78-1.56,2.49-.43,3,1.25.56,1.59-1.6,2.1-2.36l-.56-.22ZM49.69,62.98c-.44-.68-.68-1.82-1.14-2.43-.12-.16-.15-.29-.4-.23l-.28.84c.69-.31.91,1.66,1.25,1.9l.56-.08ZM26.88,61.31l-.7-.14-1.12,2.8c.77-.04,1.36.93,1.68-.14l-.83-.22.97-2.3ZM46.33,61.86l-.34-.53c-.48.28-2,.31-1.27,1.09l.49-.28.7,2.38.53-.34-.81-2.31h.7ZM29.22,62.18c-.07-.07-.38-.07-.52-.17l-.84,2.94h.7s.42-1.54.42-1.54c.3.62-.04,1.78.7,1.96l.84-2.94-.7-.14c-.07.11.1,1.14-.28,1.26-.06-.25-.2-1.26-.32-1.37ZM44.23,62.56c.14-.95-1.19-.49-1.26.08-.19,1.36,1.9.86,1.27,1.96l-.7-.08c.03,1.16,1.95.36,1.27-.78-.3-.5-1.82-.6-1.04-1.31l.47.13ZM42.55,62.43l-1.54.28.7,2.79,1.4-.14v-.7s-.97.27-.97.27l-.15-.83.7-.07-.14-.49-.7.14-.13-.64.74-.2.09-.42ZM30.69,65.47c1.6,1.02,2.38-2.12,1.27-2.74-1.25-.69-1.92,1.89-1.27,2.74ZM34.38,64.47c.65-1.42-.35-1.48-1.48-1.63.14,1.02-.08,2.08-.28,3.08h.7c.09-.09-.22-1.15.28-1.26l.16,1.24.68.16c.03-.45-.28-.91-.29-1.34,0-.25.21-.21.23-.25ZM34.99,66.06c1.63.28,2.05-.69,1.81-2.16-.15-.95-1.05-.79-1.81-.78.4.95-.08,1.96,0,2.94ZM40.01,64.27l-1.94.12v.42s2.1-.14,2.1-.14l-.16-.39Z"/>
      <path class="cls-1" d="M39.87,43.69c.1.09-.06.53.54.65.43.09.66-.05,1.01-.25.05,1.02.44.77,1.02.89.94.2,1.4.05,2.21.15.72.09,1.67.59,2.48.74,1.32.24,2.75-.07,3.8.82,1.47,1.26,1.27,4.15,1.4,5.92l-2.29.58-.07-.42h-.84s0,.42,0,.42l-.28.14.42.14c-1.01.39-3.37.31-4.19.78-.75.43-.17,1.92-.78,2.58-1.12-1.44-.65-3.29-.69-4.94,0-.27-.06-1.94-.12-2.03-.04-.06-.27-.09-.37-.25-.4-.68-.56-1.22-1.38-1.56-1.01-.41-1.33.09-2.2.11-1.45.03-2.31-.96-3.42-1.35-.27-.09-.58-.04-.85-.13-1.02-.33-2.05-.62-3.07-.92-.03-.26.28-.1.42-.08,1.35.21,2.32.03,3.63-.34-.17-.52-.55-.07-.84-.21.31-.06.81-.7.87-.73.21-.11.65.02.88-.28.2,0,.98,1.22,1.47,1.08l-.84-1.26,2.08-.26Z"/>
      <path class="cls-1" d="M31.64,26.18l.42.14-.43,1.75c-.01.25.54.44.57.58.11.6-.32.96.35,1.58.08.07.97.61,1.03.62.22.04.5-.12.76-.07.07.01.46.63,1.14.71.85.09.94-.27,1.46-.37.35-.06,1.05.31,1.27-.06-.44-.26-.98-.16-1.4-.35-.22-.1-.57-.46-.63-.46-.25-.01-1.5.26-1.95.23-.88-.05-1.85-.18-1.9-1.25l.84.14-.28.28c.64.19,1.38-.5,1.89-.5.56,0,1.17.58,1.55.64.5.08.83-.25.97-.24.22.02.62.87,1.11.67l-.07-.21.56-.91.67,1.65c-.1.68.75,2.99-.52,2.41-.02.34.32.47.39.8.12.51-.08.72-.25,1.16l-.42-.42c.08.49.4,1.25-.14,1.54l-.14-.42c.08.62-.17,1.03-.63,1.4l-.21-.56c-.06.81-.81.83-1.33,1.26l-.14-.28-.49.28-.14-.42-.14.42-.14-.84-.14.98-.28-.84-.14.56c-.25-.21-1.1-.61-1.18-.83-.06-.15.1-.36.06-.43,0-.02-.19.11-.35.01-.07-.04-1.22-1.06-1.26-1.13-.1-.17-.07-.37-.07-.56l-.21.28c-.36-.72-1.26-.64-1.05-1.54l-.28.56c-.1-.47-.18-.97-.08-1.45.03-.14.02-.41.22-.37l.14.56v-.98s-.56.42-.56.42v-1.4s-.84,1.4-.84,1.4l.31-1.99.52-.74-.28-.14.84-.7-.28-.14c.53-.66,1.03-1.49.56-2.31l.56.14-.7-.7c.83.19,1.19-.54,1.96-.7.13.14-.7,1.31-1.12,1.12Z"/>
      <path class="cls-1" d="M11.9,26.03c.53-.08.84-.52,1.39-.64,2.61-.56,3.94,2.41,3.02,4.56-.23.54-.69.56-.84.84-.26.51.04,1.07-.91,1.33-1.06.29-2.36-.32-2.7-1.37-.16-.49-.02-.93-.13-1.27-.07-.22-2.41-1.23-2.77-1.3-.29-.06-.44-.06-.7.09.19-.64.57-1.09.42-1.82.37-.08.26.25.59.45.19.12,1.85.88,1.92.81.66-2.1-1.97-3.2-3.04-1.29-.68,1.21-.71,3.68,1.22,2.69.39,1.07-.6,1.79-1.54,1.06-2.09-1.62.81-7.56,3.44-5.53.46.36.71.79.63,1.4ZM12.46,29.67c.52,3.47,3.97,1.45,3.3-1.41-.44-1.89-3.68-2.46-4.14-.27l.63.24c.66-.81,2.15-1.4,2.03.18-.04.05-1.17-.49-1.12.28.67.05,1.13.61,1.82.28l-.77,1.96c-.15-.89-1.14-.83-1.75-1.26ZM16.1,29.95c.27-1.06.53-2.35-.28-3.22l-.06.27-.36-.06.64,1.46.06,1.55Z"/>
      <path class="cls-1" d="M39.19,6.58c-.63,1.17.57,2.5.56,3.78.33.07.22-.04.31-.18.31-.48,1.49-2.54,1.5-2.96,0-.13-.17-.33-.13-.36l1.96.14-.52.94c0,1.73-.9,4.34-.59,5.98.05.27.31.36.28.63l-2.24-.42c.14-.28.36-.2.49-.55.44-1.18.24-2.96.62-4.21l-1.84,3.13-.4.23c-.29-1.06-.58-2.28-.96-3.31-.07-.18-.03-.43-.29-.47.12,1.47-.48,2.94-.29,4.42.05.41.22.45.43.76-1.04-.37-1,.2-1.68.49-.6.26-1.44.17-1.4-.63,1.5.82,1.75-1.08,1.94-2.19.27-1.57.3-3.28.55-4.86-.36-.86-2.05-.2-1.45.62.19.26.7-.06.64.34-.21,1.53-2.94.03-1.34-1.47,1.19-1.11,2.57.23,3.85.14ZM41.43,12.46c-.42-.07-.23.1-.27.35-.07.41-.03.8-.29,1.19l1.26.14-.28-.7-.56.42.14-1.4Z"/>
      <path class="cls-1" d="M57.75,14.33c7.82,7.63,10.97,19.66,7.99,30.21-1.03,3.64-2.74,6.82-4.86,9.91l-.25-.46c12.07-16.59,4.36-40.06-15.01-46.49-.6-.2-1.57-.62-2.06-.74-.3-.08-2.06-.1-2.14-.17v-.56c6.15.96,11.9,3.99,16.32,8.31Z"/>
      <path class="cls-1" d="M56.55,28.97v2.45c0,1.9,1.62,3.44,1.25,5.45-.07.36-.44.54-.41.92,2.04-2.03-1.12-4.69-.56-7.14l.83,3.14c.78.05.42.34.43.69,0,.05.44.56.5.92.19,1.08-.01,1.12-.29,1.95-.06.17.06.86-.49.57-.02.34-.03.86-.15,1.16-.07.18-.33.02-.27.24l1.87-.4,5.82,1.11-3.17,1.25-2.85-.55.98.28c.14.57-.37.26-.28.7.33-.13.41.23.53.27.35.13.96.02,1.15.43h-2.03c-.09,0-.72-.39-.77,0l1.82.56-.7.28.84.28c-.45-.32-2.2-.09-2.38-.2-.29-.18.06-.54.11-.74.15-.49-.24-.69.59-.6l-.56-.42.56-.14c-.73.2-.85-.37-1.27-.62-.81-.47-1.57-.23-.32-1.4l-.09-1.48c-.37.32-.53.29-.98.14v.56c-.31.02-.46.06-.42-.28l-.15.26c-.34-.06-.52-.19-.75.16-.14-.29-.11-.33-.49-.28l-.07.7c-.19,0,.14-1.18-.35-1.26.15.41-.19,1.31-.12,1.58.09.34.68.27.55.72.03.2-.05.19-.18.25-1.01.49-.56-1.2-1.02-1.44-.36-.19-.28.96-.56.97-.48-.38-1-.48-1.61-.42l.14.42c-.42-.09-.5-.37-.98-.14.31-.52,1.53-.24,1.24-1.03s-1.96.81-2.22.61l.07-.28c-.58.31-.42-.04-.6-.13-.4-.18-.87-.27-1.22-.57-.51.27.15,1.45-.49,1.4-.04-.04-.14-1.1-.13-1.17.02-.11.52-.35.54-.47.12-.6-.27-1.71.57-1.79,0-.45-.18-.64,0-1.1.05-.12.33-.43.25-.04-.31.46.1.54.23.8.14.27-.08.65.35.55l.28-2.52.28.84c1.78-.7-.09-1.55.42-2.66.25.01.13.43.24.66.39.79,1,.66.67,2.01-.12.48-.61.73-.36,1.25l.35-.56.14.42c.41-.23.39-.98.91-.98l-.07,1.26c.13-.28.59-.63.69-.85.57-1.23.54-.94,1.2-1.88.13-.18.21-.7.5-.91v-.42c-.29-.23-.8-.4-.78-.84l.96-.16.16-1.52v2.31c0,.69-.76,1.95-.99,2.65-.32,1-.57,2.3.42,3.01-.26-.6-.58-1.18-.55-1.87.06-1.11,1.39-2.9,1.39-4.08v-2.87h1.82ZM56.41,29.11h-1.4v2.94h.14v-2.24l.28-.07-.28-.21h.41s.43,1.12.43,1.12v-1.26s-.56-.14-.56-.14h.84s0,2.24,0,2.24l-.28-.56c-.21.23.34,2.81.56,2.52.14-.3-.14-.76-.14-.91v-3.43Z"/>
      <path class="cls-1" d="M36.23,21.39l.09-.25c.39.36.98.23,1.55.41.67.22,1.44.64,1.8,1.26.06.09-.06.28-.04.33.05.12.23.08.26.18.03.11.03,2.24,0,2.36-.07.35-.42.52-.63.77-.22-.21.14-.93.04-1.08-.03-.05-.8-.78-.85-.82-.34-.22-2.08-.47-2.55-.49-.92-.03-2.07,0-2.8.57l-.14-.28c-.4.47-.99.25-1.47.7l.13-.5-.27-.13.42-.77h-.56s.28-.42.28-.42l-.42-.21c.7-.88,1.4-1.18,2.46-1.46.59-.15.76-.17,1.37-.22.46-.04.79-.25,1.33.04Z"/>
      <path class="cls-1" d="M48.85,56.27c.22-.1.53-.27.8-.39.21-.1.66-.24.74-.45l-1.88.2-.71.35-.2-.28-.14.56-.21-.26-.42.11-.21.85c.5-.2,1.01-.5,1.53-.64.26-.07.54-.02.7-.06-.82.38-1.73.76-2.66.98.76-.96.38-2.05-.28-2.94,1.72-.34,3.49-.56,5.18-1.05.67-.2,2.77-1.18,3.21-.98.75.34.98,1.91.28,2.38-1.93.47-3.82,1.09-5.73,1.62ZM54.17,54.45c.1.09.46-.42.21-.56-.93.47-1.98.67-2.94,1.04-.1.04-.33-.18-.21.22.97.12,1.76-.59,2.65-.42l.15-.55.14.28Z"/>
      <path class="cls-1" d="M17.36,19.03c1.2-.07,2.21,1.14,3.36.56.02.47-.6,1.33-1.06,1.4-.99.17-2.22-1.31-3.14-.63.73.55,1.53,1.8,2.52,1.47l-1.33,1.68c-.26.1-.22-.44-.41-.71-.34-.5-2.5-2.33-3.09-2.79-.43-.33-.77-.77-1.32-.42-.18-.23,1.2-1.85,1.46-2.1,1.59-1.54,3.53-.58,3.01,1.54ZM14.6,18.09c-.07.07-.16.25-.15.34,0,.1,1.23,1.31,1.38,1.38s.27.12.42,0c.93-1.03-.71-2.69-1.64-1.72Z"/>
      <path class="cls-1" d="M47.17,18.62c-9.86-6.22-22.9-2.79-28.72,7.18l-1.51,3.03c-.15-1.32.74-2.72,1.43-3.82,3.04-4.9,10.46-10.32,16.45-9.99.54.03.77.34,1.62.21,2.44-.39,5.32.29,7.66,1.23.42.17,2.8,1.32,2.95,1.53s.15.4.13.64Z"/>
      <path class="cls-1" d="M14.74,56.72s.13.29-.11.37l-.35-.12.14.42h-.41c.11.13-.47.94-.56,1.03-.26.26-.59-.17-.29.51l-.42-.28.28.63c-.8-.18.47.84.28,1.05l-.42-.28-.07.28-1.19-1.12.77,1.26c-1.35-.94-2.16-2.47-3.29-3.64.67,1.43,1.9,2.66,2.94,3.85.24.11,0,.35-.07.35-.28-.02-3.42-3.86-3.43-4.26l3.51-.27.55-3.44c.65.65,1.18,1.52,1.81,2.18.26.27,1.12.66.93,1.04-.11.23-.48.32-.6.45Z"/>
      <path class="cls-1" d="M60.47,56.55l2.94.21c-.81,1.06-1.61,2.31-2.57,3.24-.29.28-.83.76-1.21.89.18-.46,1.06-.8.91-1.26l-1.05.84.42-.63-.42.21.7-1.26-.56.42.14-.56-.4.13-.26-.49.67-.77-.98.56c.02-.59-1.6-1.53-1.53-2.01l2.64-3.03.56,3.5Z"/>
      <path class="cls-1" d="M46.02,9.13c.62-.09,1.5.2,1.93.66,1.98,2.1-1.03,7.17-3.65,5.47-2.17-1.41-.55-5.79,1.72-6.13ZM47.14,9.97c-.7-.72-1.77.88-2.05,1.45-.31.64-1.12,2.93-.3,3.35.15.08.31.08.48.07,1.23-.12,2.69-4.01,1.87-4.87Z"/>
      <path class="cls-1" d="M19.56,12.77c3.1-.5,5.54,4.97,2.63,5.99-3.51,1.23-6.29-5.4-2.63-5.99ZM18.93,13.75c-.89.89,1.65,4.4,2.98,4.32,1.56-.09-.12-2.71-.63-3.3-.44-.51-1.68-1.68-2.34-1.02Z"/>
      <path class="cls-1" d="M31.91,41.29c-1.05-.45-1.28-.12-1.85.74-.52.77-.86,1.63-.88,2.56,0,.18.27.45.07.76-.29-.57-.72-.34-1.09-.47-.03-.01-.03-.16-.1-.18-.38-.12-.87-.12-1.26-.31l-.2.26v-.56s-.14.28-.14.28l-.36-.14.16-1.81c.41-.31.54-1.22.8-1.51.03-.03.66-.52.7-.55.96-.54,1.11-.15,1.86-.1.28.02.58-.15.95-.09.27.04,1.63.85,1.34,1.11Z"/>
      <path class="cls-1" d="M31.21,6.02l-.23.53c-9.2,1.56-16.5,7.21-21.07,15.19-.66,1.15-1.01,2.66-2.07,3.45C11.51,15.24,20.7,7.66,31.21,6.02Z"/>
      <path class="cls-1" d="M17.98,61.53c.47.43,2.54,1.55,3.3,1.95,9.47,5.01,20.42,5.2,29.91.09.86-.46,1.64-1.1,2.52-1.54.13-.06.37-.29.47-.09-.3.54-1.1.97-1.64,1.3-10.65,6.53-24.23,5.88-34.38-1.26-.23-.16-2.89-2.14-2.62-2.35.15-.02.28,0,.42.07.51.27,1.55,1.4,2.02,1.83Z"/>
      <path class="cls-1" d="M26.32,9.1c-.13.26-.17.43-.11.73.34,1.77,3.17,4.53.86,5.96-1.01.63-2.08.4-2.77-.54s-1.08-2.99-1.75-3.81c-.21-.25-.5-.14-.71-.31.25-.25,1.9-1.07,2.1-.91-.06.16-.15.3-.15.49,0,.51,1.3,3.45,1.63,3.97.7,1.1,2.02.4,1.85-.58-.04-.25-1.5-3.55-1.68-3.79-.21-.3-.45-.48-.82-.51l1.54-.7Z"/>
      <path class="cls-1" d="M62.71,24.77c-.22.01-.41-.15-.63-.14-.44.02-3.58,1.4-4.04,1.7-.78.51-.63,1.71.27,1.8.42.04,3.7-1.38,4.17-1.7.32-.22.62-.91.79-.58l.56,1.45c-.37-.01-.61-.18-1.01-.11-1.55.26-4.55,2.95-5.82.86-.3-.49-.38-1.21-.27-1.77.35-1.72,4.25-1.94,5.08-3.46l.91,1.96ZM57.53,27.71l-.28.07c0,.86,1.8,1.08,2.24.42-.29-.32-.45.17-.49.18-.32.08-1.51-.17-1.47-.67Z"/>
      <path class="cls-1" d="M18.62,44.37l-.13.47.23.2,2.57-.12c-.13-.3-.71-.07-1.02-.17-.2-.06-.29-.33-.59-.39-.86-.16-.96.33-1.19-.98,1.85.44,4.03.77,5.83,1.38.18.06.43.04.47.3l-4.67,1.22-5.83-1.99,3.97-.78.37.71h-3.5v.14h3.5Z"/>
      <path class="cls-1" d="M56.41,15.53c-.19,0-.41-.02-.6.03-.52.15-3.33,3.03-3.44,3.57-.22,1.13,1.05,1.22,1.86.59.45-.35,2.58-2.49,2.7-2.9.06-.19.03-.4.03-.6.15-.17,1.43,1.11,1.26,1.26-.35-.02-.6-.05-.92.13-.69.4-1.94,2.12-2.72,2.74-1.05.83-2.07.83-2.86-.36-.85-1.28-.14-2.09.69-3.07.49-.58,1.89-1.65,2.18-2.16.16-.27.16-.48.13-.78l1.68,1.54ZM54.03,20.57c-.17-.44-.58-.1-.99-.19-.33-.07-.51-.36-.83-.37.21.79,1.19.75,1.82.56Z"/>
      <path class="cls-1" d="M53.47,12.88l-.84,1.54-.28-.07c.11-.57.19-1.12-.19-1.62-2.43-.43-.84,1.54-.68,2.5s.07,2.06-.87,2.56c-1.43.77-2.47-.69-3.43-1.48l1.4-1.61c.06.41-.14.79-.15,1.19-.02,1.56,1.86,1.57,1.82.16-.02-.83-.75-1.71-.7-2.67.07-1.32,1.16-1.93,2.39-1.55.57.18.85,1.1,1.53,1.06Z"/>
      <path class="cls-1" d="M51.37,56.69c.06.29-.15.32-.32.45-.76.61-2.07,1.36-2.95,1.81-8.12,4.21-18.69,3.75-26.13-1.63.02-.17.43-.04.55,0,.86.34,1.95,1.15,2.9,1.58,7.71,3.55,16.25,3.13,23.66-.94.33-.18,2.09-1.46,2.28-1.28Z"/>
      <path class="cls-1" d="M21.84,48.29l5.39-1.4c.55-.03-.25.68-.23.96l-2.22.44c.98-.18,1.69.58,2.66.14-.31-.73-.12-.84.15-1.54.64.31,1.86.42,2.41.73.18.1.29.15.24.39-.43-.07-.83.87-1.02.94-.98.35-2.62.38-3.68.89l-3.29-1.27,1.68-.28h-2.1Z"/>
      <path class="cls-1" d="M6.72,28.55c.24-.03.13.32.14.49.06,1.29-.3,2.28-.42,3.5-.61,6.61.24,12.37,3.47,18.22.4.72,1.91,2.72,2.07,3.26.07.25.05.26-.15.43-2.66-3.6-4.59-7.61-5.46-12.03s-.71-9.32.35-13.86Z"/>
      <path class="cls-1" d="M59.21,18.48l1.12,1.82c-.17.03-.35-.13-.5-.12-.87.03-3.48,2.47-4.54,2.79.24,1.09,1.21,1.39,2.23,1.25l-1.61,1.11-2.03-3.35c.15,0,.29.09.44.06.4-.07,4.38-2.73,4.53-3.01.07-.14.07-.31.08-.46l.27-.09Z"/>
      <path class="cls-1" d="M29.82,8.12c-.34.39-.31.69-.27,1.17.14,1.39.86,2.99.97,4.42.54-.06,1.31-.2,1.6-.71.17-.3.05-.93.5-.83l.28,1.82-3.92.7c.07-.19.24-.27.28-.49.07-.4-.92-4.84-1.14-5.16-.17-.25-.51-.12-.4-.5l2.1-.42Z"/>
      <path class="cls-1" d="M35.83,27.71c-.04-.37.79-.49.04-1.19l.24-.35c-.9-.18-1.58-.45-2.52-.14l.84-.56-.28-.21-.42.21c-.06-.97.98-1.08,1.73-1.1.51-.02,2.06.21,2.5.44,1.21.65.6,1.09,1.22,2-.09.62-.32-.05-.37-.08-.11-.04-.25.02-.32,0,.02,0,.21.2.29.22-.26.31-.14,1.09-.57,1.05v.14c.56.04.42.55.42.98l-1.1-.02c-.33-.64,0-1.64.82-1.38.03-.02-.24-.5-.34-.57-.19-.14-.52-.03-.5-.27.32-.09.64-.19.98-.14-.37-.12-.78-.13-1.05-.42-.25,0-.8,1.58-.77,1.87,0,.07.92.48.56,1.2l-.14-.28c-.81.27-.6-.16-1.26-.28l.84-.91c0-.06-.68-.18-.84-.21,0,.09.19.25.14.42h-.42s.14.56.14.56c-.96.21-2.17.03-1.3-1.12.51-.09.97.06,1.45.15Z"/>
      <path class="cls-1" d="M16.52,25.75l-.29-.09c-.03-.28-.16-.41-.36-.59-.31-.29-4.1-2.62-4.35-2.65-.21-.03-.39.11-.6.11l1.19-1.96c.04.78.76,1.07,1.34,1.46.49.33,2.97,1.94,3.31,2.02.37.09.46-.47.73-.05l-.98,1.75Z"/>
      <path class="cls-1" d="M46.29,40.63c.53.73.48,1.9.32,2.76h-.41c-.14-1.36-1.05-2.33-2.39-2.6-.33-.07-2.29.29-2.36.39s-.02.36-.16.48l-.43-.09-.14.84-.27-.21.42-1.61.28.14c.21-1.11,2-1.38,2.98-1.23.53.08,1.85.71,2.16,1.13Z"/>
      <path class="cls-1" d="M54.45,43.95c.04.3.01.23-.18.31-.31.14-2.4.67-2.68.66l-4-1.04c0-.13,1.25-.35,1.46-.48.11-.07-.08-.27.06-.36.77-.48,3.13-.21,3.96.11.42.16.82.79,1.37.8Z"/>
      <path class="cls-1" d="M45.49,42.83l-.76,1.41-.78.13c.27-.53.57-1.05.66-1.64.02-.15.15-.49-.1-.45-.1.48-.65,2.3-1.33,2.1s.63-2.01.28-2.52l-.91,2.24-.69-.29c.35-.73.07-2.67,1.07-2.76.09,0,1.52.54,1.69.64.5.28,1.28,1.21,1.31,1.78.05,1-.86,1.23-.64.35.07-.29.34-.58.21-.98Z"/>
      <path class="cls-1" d="M47.56,45.12c.44.25.24.02.79.08,1.17.13,2.03.79,3.27.67.42-.04.74-.23,1.15-.25l-.14-.28.84-.14c-.65.62-1.05,1.51.14,1.68l-.14.28h1.4s-1.26.42-1.26.42c1.9.13,3.83-.55,5.67-.7.19-.02.87-.12.91.14l-8.12,1.26c-.61-3-3.44-2.35-5.74-2.8.02-.28.52-.09.75-.14.13-.03.06-.46.48-.23Z"/>
      <path class="cls-1" d="M64.11,28.41l.56,2.1c-.67-.26-.9-.22-1.57-.1-.71.13-3.98.91-4.39,1.21-.15.11-.23.69-.41.29-.09-.2-.56-1.89-.49-1.96.28-.05.36.25.63.28s4.85-1.1,5.14-1.26.07-.68.52-.56ZM59.07,30.37h-.84s.35,1.12.35,1.12l1.05-.56-.7-.28.14-.28Z"/>
      <path class="cls-1" d="M37.37,43.25l-.57-.07-.13-.63c-.27.06-.36.24-.56-.07.28-.22.51-.18.42-.63-.81.38-1.33-.19-2.1-.28.15.6.88.64,1.36.95.58.38.88.8,1.02,1.5l-.83-.22.13-.83c-.38.34-1.03.42-1.46.13-.21-.14-.15-.49-.43-.41s-.18.27,0,.42c.21.18,1.47.79,1.47.91-.27.42-.69.28-1.12.35l.14-.28-.41.13c-.17-.8-1.64-.64-.92-1.68l.63-.2c0-.05-.61-.4-.7-.42-.18-.04-.43.39-.55,0-.02-.08,1.32-.62,1.26-1.05-.1-.09-1.94,1.28-2.38,1.05.45-.37,1.55-.98,2.09-1.12,1.22-.32,3.75.94,3.64,2.45Z"/>
      <path class="cls-1" d="M27.12,27.61s.05.23.21.29c.22.08.43-.07.59-.04.77.12.97,2.11.25,2.53-.15.09-.38-.01-.43.03-.07.05-.07.29-.25.36-.59.21-1.6-.16-1.94-.68-.7-1.09.21-3.08,1.57-2.47ZM25.77,29.37l-.15-.26v.84s.26-.12.26-.12c.03.19.39.7.58.54.25-.22-.24-.3-.27-.38-.09-.22-.12-.5-.15-.74l-.26.12Z"/>
      <path class="cls-1" d="M37.51,42.41c-.39-.25-.55-.66-.91-.98-1.01-.87-1.43-.44-1.59-2.19-.02-.19.14-.45.13-.47-.03-.04-.73-.08-.7-.56.14-.13,1.36,1.16,2.2.24.18-.2.11-.61.6-.66l.36,3.22-.08,1.4Z"/>
      <path class="cls-1" d="M55.99,28.69l-.54-.02c-1.21-3.56-3.71-6.76-6.72-8.96l.13-.54c3.21,2.36,5.83,5.76,7.14,9.52Z"/>
      <path class="cls-1" d="M16.66,43.53l-.42.08c-1.06-2.6-1.56-5.72-1.4-8.55.03-.57.15-1.85.29-2.37.06-.24.15-.35.34-.5.11.35.1.83.08,1.19-.1,1.77-.33,3.22-.14,5.03s.66,3.48,1.26,5.11Z"/>
      <path class="cls-1" d="M28.28,33.73c-.05-.08-.12-.19-.14-.28.23-.16,1.46.4,1.73.58,1.33.86,3.65,2.83,4.34,4.34.11.24.21.55.23.82-.25-.2-.5-.52-.7-.77-.84-1.05-2.01-1.96-2.94-3.11-.1-.12-.1-.41-.15-.46-.04-.03-.31.11-.51.03-.59-.23-.84-.9-1.86-1.16.3.45,1.03.6.98,1.26.83-.32.49.17.88.52.7.62,1.43,1.2,2.21,2.06.33.36.77.93,1.02,1.34.27.45.2.15.39.36.04.04.45.85.41.89l-.98-.28.56-.28h-.98s.56-.28.56-.28c-.52-.08-1.14-.26-1.45-.7-.38-.56-.44-.46-.94-.89-.09-.07-.59-.75-.55-.78.2-.06.77.37.84,0l-1.4-.49.56-.35-.84-.14.42-.28h-.84s.7-.42.7-.42c-.23-.08-.82-.17-.95-.32-.06-.06,0-.27-.06-.34-.13-.16-.82-.35-.95-.81-.08-.34.26-.11.42-.07Z"/>
      <path class="cls-1" d="M54.24,42.13c-.18-.02-1.33-.34-1.33-.49.19-.17.35-.42.56-.55,1.03-.68,1.53.12,2.65-.08.05.34-.29.48-.54.58l.12.26-1.26.14h1.96v.14c-.69-.06-1.49.08-2.17,0Z"/>
      <path class="cls-1" d="M11.06,39.34l.07.28h.28s.28-.29.28-.29l.14.29.77-.29-.07.42.77-.14v.42s.56-.28.56-.28l.07.71h.49s0,.69,0,.69l.42-.14-.28.28c-.09.14.37.24.41.3.07.1-.18.49-.13.68-.44-.33-.39-.96-.83-1.34-.37-.32-1.2-.88-1.68-.98-.44-.08-1-.12-1.44-.03-.32.07-1.55.89-1.64.81l.29-.7h.48s.07-.56.07-.56l.49.42.21-.56h.27Z"/>
      <path class="cls-1" d="M52.77,41.85l.14,1.12-2.38-.42.56-.28-3.92.42c-.22-.17,0-.25.21-.28,1.79-.21,3.59-.45,5.39-.56Z"/>
      <path class="cls-1" d="M61.86,35s-.06.14.12.27c.09.06.36-.11.31.14-.3,0-.35.3-.59.46-.14.09-.43.06-.51.12-.02.01.1.21,0,.34-.29.35-.75.32-.57,1.18l-.28-.28.14,1.4-.28-.56-.14.7c.03-.44-.13-.59-.56-.56l.55-.3-.41-.75.55-.3-.13-.75.48.13.21-.22c.05-.2-.27-.42.08-.6l.41.27c.36-.06.3-.96.64-.69Z"/>
      <path class="cls-1" d="M23.52,31.91c-.29.02-.46.22-.62.43-.92,1.21-1.23,3.09-2.06,4.37l-1.09,3.04c.07-.88.4-1.76.7-2.59.37-1.04,1.9-5.08,2.8-5.46l.28.21Z"/>
      <path class="cls-1" d="M64.11,56.69c-.56.85-1.1,1.73-1.75,2.52-.26.32-1.21,1.42-1.46,1.61-.19.14-.29.26-.57.2,1.01-1.26,2.05-2.48,3-3.79.27-.38.08-.69.78-.55Z"/>
      <path class="cls-1" d="M23.24,49.13l-.14.28c.49.12,1.07.21,1.54.35.25.08.69.44.77.44.06,0,.86-.4,1.16-.48.37-.09.77-.18,1.14-.26.14-.03.46-.19.43.08-.78.11-2.13.86-2.86.83-.18,0-3.13-1.13-3.35-1.27-.09-.05-.28-.19-.23-.26.61-.31.93.29,1.54.28Z"/>
      <path class="cls-1" d="M41.85,49.69l-1.63.4-7.32,1,3.33-.66c1.89-.17,3.74-.68,5.63-.74Z"/>
      <path class="cls-1" d="M38.35,21.55c-.61-.33-1.03-.87-1.6-1.26-.48-.32-2.3-1.41-2.77-1.37s-1.02.53-1.5.46c.64-.51,1.4-.78,2.22-.54.49.15,2.53,1.31,2.95,1.67.17.14.85.88.71,1.04Z"/>
      <path class="cls-1" d="M12.95,52.35c.11,0,1.18,1.56,1.4,1.82.28.34,1.12.97,1.26,1.26.11.22-.05.42-.14.42-.17,0-2.07-2.14-2.28-2.47-.06-.09-.76-1.03-.24-1.02Z"/>
      <path class="cls-1" d="M63.69,43.95l-2.58.69-3.44-1.11c1.18-.08,2.6.65,3.72.7.75.03,1.52-.41,2.3-.28Z"/>
      <path class="cls-1" d="M29.54,49.27c-.91.94-2.47,1.88-3.78,1.26l3.78-1.26Z"/>
      <path class="cls-1" d="M56.97,55.71l2.8-3.36c.03.24-.02.44-.11.66-.15.36-2.36,3-2.69,2.7Z"/>
      <path class="cls-1" d="M52.77,41.29c-.09.2-.71.23-.93.26-1.68.25-2.82,0-4.46-.12-.19-.01-.59.12-.49-.21,1.95-.1,3.93.32,5.88.07Z"/>
      <path class="cls-1" d="M47.03,19.18l.55-.16c-.33-2.34,2.16-.75.56.21-.32.19-.94.4-1.11-.06Z"/>
      <path class="cls-1" d="M36.25,5.6c-.12.2-.71.36-.92.41-1.21.25-2.6.15-3.84.43l1.21-.55c.84.31,1.15-.17,1.81-.27.55-.08,1.18.03,1.74-.01Z"/>
      <path class="cls-1" d="M24.92,45.49l-.21.28-2.73.7,3.36-.56-.14.21-5.18.91c-.08-.4.12-.22.3-.32,1.07-.58,2.28-.65,3.38-.94.13-.04,0-.42.66-.14l-.28-.28.84.14Z"/>
      <polygon class="cls-1" points="54.59 27.43 52.15 27.72 45.91 27.64 54.59 27.43"/>
      <path class="cls-1" d="M42.13,36.95c-.46.1-.23-.5-.34-.84-.36-1.07-1.15-2.08-1.33-3.21.93,1.14,1.58,2.57,1.68,4.06Z"/>
      <path class="cls-1" d="M11.6,35.66c0-.52.52-.07.44.03l-.28.21.84.42-.28.56.56.22c.08.36-.1.21-.29.36l.15.75c-.53-.27-.46-1.03-.71-1.57-.02-.04-.42-.6-.45-.63-.24-.23-.74-.54-1.08-.6l.28-.21.82.46Z"/>
      <path class="cls-1" d="M24.92,46.47c-.06.28-.29.24-.49.28-1.18.22-2.89.68-3.98.78-.26.02-.46-.07-.71-.08-.41-.38,1.02-.28,1.17-.3,1.34-.19,2.66-.53,4.01-.68Z"/>
      <path class="cls-1" d="M33.84,28.03c.08.13.03.37.11.52.14.27.47.18.49.42-1.22.16-1.33-.6-1.82-1.47.15-.17.18-.27.42-.14.05.02.77.63.8.67Z"/>
      <path class="cls-1" d="M57.95,47.73l-5.6.98c.05-.28.3-.23.49-.28,1.56-.39,3.5-.47,5.11-.7Z"/>
      <path class="cls-1" d="M44.79,38.77l-1.4-.42.42-.28-1.54-.28.98-.42c-.69-.08-1.16-.9-1.12-1.54.52.39.84,1.17,1.26,1.61.15.15,1.67,1.05,1.4,1.33Z"/>
      <path class="cls-1" d="M32.52,48.1c.14.09.34.09.45.18.41.34.13,1.44.2,1.97l-.28-.07c.27-.49.15-1.1-.01-1.6h-1.39s.84-.29.84-.29l-.56-.42.56-.07c.07.08.1.25.18.3Z"/>
      <path class="cls-1" d="M40.03,39.05c-.21.01-.25-.5-.26-.65-.1-.87-.2-1.88-.01-2.71l.28,1.47v1.89Z"/>
      <path class="cls-1" d="M42.27,50.11c.07.43-.11.23-.35.27-1.25.22-2.58.31-3.84.42l4.2-.7Z"/>
      <polygon class="cls-1" points="35.69 27.3 33.83 27.55 33.17 27.01 34.77 27.16 34.87 26.9 35.69 27.3"/>
      <polygon class="cls-1" points="40.17 43.81 41.85 41.99 41.16 43.47 40.17 43.81"/>
      <path class="cls-1" d="M40.31,49.55c-.45.14-.34-.26-.63-.29-.61-.06-.42.27-.69.3-.33.04-.87,0-1.2-.08.74-.36,2.04-.85,2.52.07Z"/>
      <path class="cls-1" d="M22.82,47.31l-3.29.84-.08-.41-1.5-.26-1.29-.6c.39-.02.75.11,1.12.21.55.14,1.79.73,2.18.76.75.07,2.03-.67,2.86-.55Z"/>
      <path class="cls-1" d="M15.26,59.48c-.22.18-1.48-1.02-1.68-.07,0,.18.55.69.15.77-1-1.51.97-1.99,1.54-.7Z"/>
      <path class="cls-1" d="M35.55,26.73c-.5-.45-1.2-.24-1.82-.36-.16-.03-.46.01-.42-.2.75.06,2.2-.62,2.24.56Z"/>
      <path class="cls-1" d="M45.63,39.75l-1.29-.6-1.23-.23c1.03-.33,1.93-.09,2.52.84Z"/>
      <path class="cls-1" d="M39.05,6.16l-.74-.03-1.64-.52c.77.03,1.91-.19,2.38.56Z"/>
      <polygon class="cls-1" points="60.89 45.21 60.47 45.42 60.89 45.77 59.77 45.63 59.8 45.23 60.05 45.14 59.77 44.93 60.89 45.21"/>
      <path class="cls-1" d="M50.25,30.79h-2.38v-.28h2.17s.22.19.21.28Z"/>
      <polygon class="cls-1" points="43.79 34.46 43.81 35.83 43.39 35.83 43.39 34.29 43.79 34.46"/>
      <path class="cls-1" d="M70.39,32.45l-.26-.96c.57.37.67,1.28.07,1.68-.54.36-.31-.75.19-.72Z"/>
      <path class="cls-1" d="M34.15,44.51c-.74.21-1.74-.84-.56-.78l.56.78Z"/>
      <path class="cls-1" d="M50.11,40.45l-1.54.28c-.08-.37.09-.24.27-.35.3-.17.64-.27.92-.49l.35.56Z"/>
      <polygon class="cls-1" points="46.31 36.23 46.47 35.97 46.24 36.51 45.21 36.53 45.21 35.97 46.31 36.23"/>
      <path class="cls-1" d="M27.3,40.31l-2.1.56c.44-.56,1.43-.82,2.1-.56Z"/>
      <path class="cls-1" d="M2.63,32.64c.1.16,0,.47.03.67-.58-.36-1.05-.88-.35-1.4-.18.72.21.55.32.73Z"/>
      <path class="cls-1" d="M70.27,41.29l-.42-1.12c.75-.19,1.14.82.42,1.12Z"/>
      <path d="M34.38,64.47s-.24,0-.23.25c0,.43.32.89.29,1.34l-.68-.16-.16-1.24c-.49.11-.18,1.17-.28,1.26h-.7c.2-1,.42-2.06.28-3.08,1.13.15,2.13.21,1.48,1.63Z"/>
      <path d="M29.22,62.18c.12.11.25,1.11.32,1.37.38-.12.21-1.15.28-1.26l.7.14-.84,2.94c-.74-.18-.4-1.34-.7-1.96l-.42,1.54h-.7s.84-2.94.84-2.94c.14.1.45.1.52.17Z"/>
      <path d="M50.53,60.6s.48.05.68.37c.79,1.23-1.04,1.99-1.45,1.03-.14-.33-.01-.61-.07-.88-.03-.16-.39-.17-.5-.37-.53-1.05,1.1-1.83,1.42-.71.08.28-.1.53-.08.56ZM50.77,61.2c-.56-.58-.96.38-.3.79.46.19.55-.54.3-.79Z"/>
      <path d="M52.37,59.6s.37.06.55.22c.58.5.25,1.44-.5,1.5-1.22.09-.7-.82-.94-1.24-.09-.15-1.4-.78-.33-1.44,1.14-.7,1.11.83,1.22.97ZM52.63,60.88l-.06-.71-.64-.13c-.08.48.16.91.7.84Z"/>
      <path d="M34.99,66.06c-.08-.98.4-1.99,0-2.94.76,0,1.66-.17,1.81.78.24,1.47-.18,2.44-1.81,2.16ZM35.55,65.64c1.46.08.54-2.86.14-2.01l-.14,2.01Z"/>
      <path d="M30.69,65.47c-.66-.84.02-3.42,1.27-2.74,1.12.61.34,3.75-1.27,2.74ZM31.08,65.22c.64.43,1.16-1.93.63-2.1-.73-.22-.89,1.92-.63,2.1Z"/>
      <path d="M21.09,58.54c1.75-.16.5,3.08-.83,2.88-1.44-.22-.29-2.77.83-2.88ZM20.02,60.88c.49.08.62-.11.9-.43.16-.19.88-1.27.43-1.38-.81-.21-1.46,1.69-1.32,1.82Z"/>
      <path d="M25.2,60.74l.56.22c-.51.76-.86,2.92-2.1,2.36-1.13-.51.38-2.22.43-3l.69.2c-.15.32-1.45,2.31-.76,2.45.43.09,1.15-1.83,1.19-2.24Z"/>
      <path d="M53.14,57.28c.86-.09,2.33,1.91,1.45,2.69-1.27.75-3.07-2.52-1.45-2.69ZM52.91,57.81c-.21.2.83,1.91,1.33,1.82.4-.25.03-.68-.15-.97-.26-.42-.61-.92-1.18-.85Z"/>
      <path d="M18.48,58.93l-.42.98-.55-.49,1.88-2.31c1.55.94.69,2.72-.9,1.82ZM18.9,58.78c.43.18,1.21-.74.63-.98-.21-.09-.76.85-.63.98Z"/>
      <polygon points="42.55 62.43 42.46 62.85 41.72 63.05 41.85 63.69 42.55 63.54 42.69 64.04 41.99 64.11 42.14 64.94 43.11 64.66 43.11 65.36 41.72 65.5 41.01 62.71 42.55 62.43"/>
      <path d="M44.23,62.56l-.47-.13c-.77.71.74.81,1.04,1.31.68,1.14-1.23,1.94-1.27.78l.7.08c.64-1.1-1.45-.61-1.27-1.96.08-.56,1.4-1.02,1.26-.08Z"/>
      <path d="M46.33,61.86h-.7s.81,2.32.81,2.32l-.53.34-.7-2.38-.49.28c-.73-.77.78-.81,1.27-1.09l.34.53Z"/>
      <path d="M26.88,61.31l-.97,2.3.83.22c-.32,1.07-.91.1-1.68.14l1.12-2.8.7.14Z"/>
      <polygon points="21.98 62 22.82 62.21 22.47 62.69 21.14 62 22.75 59.49 23.23 59.84 21.98 62"/>
      <path d="M49.69,62.98l-.56.08c-.34-.24-.57-2.22-1.25-1.9l.28-.84c.25-.05.28.07.4.23.46.61.7,1.74,1.14,2.43Z"/>
      <polygon points="40.01 64.27 40.17 64.66 38.07 64.8 38.07 64.38 40.01 64.27"/>
      <path d="M12.46,29.67c.61.43,1.6.37,1.75,1.26l.77-1.96c-.69.32-1.14-.23-1.82-.28-.06-.77,1.08-.23,1.12-.28.13-1.58-1.37-.99-2.03-.18l-.63-.24c.46-2.19,3.69-1.62,4.14.27.67,2.86-2.77,4.88-3.3,1.41Z"/>
      <path d="M16.1,29.95l-.06-1.55-.64-1.46.36.06.06-.27c.81.86.55,2.16.28,3.22Z"/>
      <path d="M41.43,12.46l-.14,1.4.56-.42.28.7-1.26-.14c.26-.39.22-.78.29-1.19.04-.25-.15-.42.27-.35Z"/>
      <path d="M56.41,29.11v3.43c0,.15.28.61.14.91-.21.29-.77-2.29-.56-2.52l.28.56v-2.24s-.84,0-.84,0l.56.14v1.26s-.43-1.11-.43-1.11h-.41s.28.2.28.2l-.28.07v2.24h-.14v-2.94h1.4Z"/>
      <path d="M54.17,54.45l-.14-.28-.15.55c-.89-.16-1.68.55-2.65.42-.12-.4.11-.18.21-.22.96-.37,2.01-.57,2.94-1.04.25.14-.11.65-.21.56Z"/>
      <path d="M14.6,18.09c.93-.97,2.58.69,1.64,1.72-.15.12-.27.07-.42,0s-1.37-1.28-1.38-1.38c0-.08.09-.27.15-.34Z"/>
      <path d="M47.14,9.97c.82.85-.64,4.74-1.87,4.87-.17.02-.33.02-.48-.07-.82-.42-.01-2.7.3-3.35.28-.57,1.35-2.18,2.05-1.45Z"/>
      <path d="M18.93,13.75c.66-.66,1.9.5,2.34,1.02.51.59,2.2,3.21.63,3.3-1.32.08-3.87-3.42-2.98-4.32Z"/>
      <path d="M57.53,27.71c-.04.5,1.15.75,1.47.67.04,0,.2-.5.49-.18-.44.67-2.24.44-2.24-.42l.28-.07Z"/>
      <path d="M54.03,20.57c-.63.19-1.61.23-1.82-.56.32,0,.5.3.83.37.41.09.82-.25.99.19Z"/>
      <polygon points="59.07 30.37 58.93 30.65 59.63 30.93 58.58 31.49 58.23 30.37 59.07 30.37"/>
      <path d="M25.77,29.37l.26-.12c.03.24.05.52.15.74.04.08.52.16.27.38-.19.16-.56-.35-.58-.54l-.26.12v-.84s.15.26.15.26Z"/>
      <path class="cls-1" d="M50.77,61.2c.25.26.16.98-.3.79-.66-.41-.26-1.37.3-.79Z"/>
      <path class="cls-1" d="M52.63,60.88c-.54.07-.77-.36-.7-.84l.64.13.06.71Z"/>
      <path class="cls-1" d="M35.55,65.64l.14-2.01c.4-.85,1.32,2.09-.14,2.01Z"/>
      <path class="cls-1" d="M31.08,65.22c-.26-.17-.1-2.32.63-2.1.53.16.02,2.53-.63,2.1Z"/>
      <path class="cls-1" d="M20.02,60.88c-.13-.13.51-2.03,1.32-1.82.46.12-.26,1.19-.43,1.38-.27.32-.41.51-.9.43Z"/>
      <path class="cls-1" d="M52.91,57.81c.56-.07.92.44,1.18.85.18.29.55.71.15.97-.49.09-1.53-1.62-1.33-1.82Z"/>
      <path class="cls-1" d="M18.9,58.78c-.13-.13.42-1.06.63-.98.59.24-.2,1.16-.63.98Z"/>
    </g>
  </g>
</svg>